<?xml version="1.0" encoding="UTF-8"?>
<svg width="14px" height="14px" viewBox="0 0 14 14" version="1.1" xmlns="http://www.w3.org/2000/svg" xmlns:xlink="http://www.w3.org/1999/xlink">
    <!-- Generator: Sketch 61.2 (89653) - https://sketch.com -->
    <title>编组备份 12</title>
    <desc>Created with Sketch.</desc>
    <g id="标签系统" stroke="none" stroke-width="1" fill="none" fill-rule="evenodd">
        <g id="标签系统切图" transform="translate(-128.000000, -102.000000)" fill="#930CEA" fill-rule="nonzero">
            <g id="编组-4" transform="translate(128.000000, 102.000000)">
                <g id="编组备份-12" transform="translate(7.000000, 7.000000) scale(-1, 1) translate(-7.000000, -7.000000) translate(1.000000, 1.000000)">
                    <path d="M11.7803035,0.219703871 C11.6396,0.0791070579 11.4488966,0 11.25,0 L6.68560001,0.000300686893 C6.48680001,0.000300686893 6.29600001,0.0791070713 6.15539312,0.219799554 L0.2196,6.15539863 C0.0790068978,6.29610478 0,6.48679271 0,6.68569476 C0,6.8845968 0.0790068978,7.07529839 0.2196,7.21589521 L4.78390345,11.7802961 C4.9304,11.9267016 5.12230345,12 5.31420689,12 C5.50620689,12 5.69811034,11.9267016 5.84441379,11.7802961 L11.7803035,5.8445057 C11.9208966,5.70379955 12,5.51311162 12,5.31410023 L12,0.749999992 C12,0.551097944 11.9208966,0.360396354 11.7803035,0.219703871 Z M8.5,4.99999545 C7.6716,4.99999545 7,4.3283918 7,3.49999545 C7,2.67159909 7.6716,1.99999545 8.5,1.99999545 C9.3284,1.99999545 10,2.67159909 10,3.49999545 C10,4.3283918 9.3284,4.99999545 8.5,4.99999545 Z" id="形状"></path>
                </g>
            </g>
        </g>
    </g>
</svg>