<?xml version="1.0" standalone="no"?><!DOCTYPE svg PUBLIC "-//W3C//DTD SVG 1.1//EN" "http://www.w3.org/Graphics/SVG/1.1/DTD/svg11.dtd"><svg class="icon" width="128px" height="128.00px" viewBox="0 0 1024 1024" version="1.1" xmlns="http://www.w3.org/2000/svg"><path d="M742.4 384a25.6 25.6 0 1 1 0 51.2h-409.6a153.6 153.6 0 1 1 0-307.2h460.8a25.6 25.6 0 1 1 0 51.2h-460.8a102.4 102.4 0 1 0 0 204.8h409.6z" fill="#FFFFFF" /><path d="M590.336 435.2v-51.2H768A76.8 76.8 0 0 1 844.8 460.8v358.4a128 128 0 0 1-128 128H307.2A128 128 0 0 1 179.2 819.2V256h51.2v563.2A76.8 76.8 0 0 0 307.2 896h409.6a76.8 76.8 0 0 0 76.8-76.8V460.8a25.6 25.6 0 0 0-25.6-25.6h-177.664z" fill="#FFFFFF" /><path d="M317.0304 308.8384a25.6 25.6 0 1 1 0-51.2h498.2784a25.6 25.6 0 1 1 0 51.2H317.0304z" fill="#FFFFFF" /></svg>