<?xml version="1.0" encoding="UTF-8"?>
<svg width="14px" height="14px" viewBox="0 0 14 14" version="1.1" xmlns="http://www.w3.org/2000/svg" xmlns:xlink="http://www.w3.org/1999/xlink">
    <!-- Generator: Sketch 61.2 (89653) - https://sketch.com -->
    <title>删除 (2)</title>
    <desc>Created with Sketch.</desc>
    <g id="11月23日" stroke="none" stroke-width="1" fill="none" fill-rule="evenodd">
        <g id="icon" transform="translate(-89.000000, -84.000000)" fill="#999999" fill-rule="nonzero">
            <g id="删除" transform="translate(89.000000, 84.000000)">
                <g id="编组" transform="translate(2.000000, 2.000000)">
                    <g id="形状">
                        <path d="M0,1.94308533 L0,1.66165369 C0.104612411,1.43707128 0.274615467,1.36923248 0.494621543,1.37473263 C1.13461873,1.39123309 1.7792313,1.38023278 2.41846227,1.38023278 C2.50308068,1.38023278 2.59384693,1.37473263 2.68846235,1.36923248 L2.68846235,1.02638604 C2.69846836,0.401205589 3.01846245,0.0299452763 3.57307499,0.00244451235 C3.69846565,-0.00305564043 3.82308108,0.00244451235 3.9476965,0.00244451235 C4.74769073,0.00244451235 5.54769397,-0.00305564043 6.34692198,0.00244451235 C6.97615594,0.00794466513 7.29615904,0.356291255 7.32615905,1.06581096 L7.34153766,1.38023278 C8.08615628,1.38023278 8.81077188,1.38573294 9.53000587,1.37473263 C9.74538754,1.36923248 9.90000297,1.44807158 10,1.66166443 L10,1.94308533 C9.86000597,2.16309144 9.65538752,2.20709267 9.43077507,2.19609236 C9.14077198,2.18509206 8.85538427,2.19609236 8.5407718,2.19609236 L8.5407718,9.31879021 C8.5407718,9.98155862 8.33077173,10.5049862 7.78615619,10.8139079 C7.63615614,10.8991603 7.46154671,10.9376614 7.29615904,11 L2.69845934,11 C1.68923128,10.6342398 1.46000344,10.2684797 1.46000344,9.03644546 L1.46000344,2.19609236 C1.12461272,2.19609236 0.819231015,2.18509206 0.514615539,2.20159251 C0.30000009,2.20709267 0.124615422,2.15116729 0,1.94308533 Z M3.40769634,1.35823217 L6.59231268,1.35823217 C6.59231268,1.23906578 6.58692205,1.14372621 6.59231268,1.05389755 C6.60154345,0.885219034 6.53153742,0.818304089 6.386928,0.818304089 C5.46230933,0.823804242 4.54308129,0.818304089 3.6176964,0.818304089 C3.46846258,0.818304089 3.40308095,0.896219339 3.40846256,1.05388681 L3.40846256,1.35823217 L3.40769634,1.35823217 Z M7.0569252,6.39820909 C7.0569252,5.70151591 7.0569252,4.99749635 7.05230981,4.28890049 C7.05230981,3.94605406 6.94461447,3.76638598 6.73154048,3.75996197 C6.52384811,3.75446182 6.39307584,3.94605406 6.39307584,4.27790019 C6.38769423,5.67310203 6.39307584,7.06189061 6.39307584,8.4580163 C6.396925,8.78893858 6.52769727,8.98603097 6.73154048,8.98053082 C6.93923285,8.97503066 7.0569252,8.78343843 7.0569252,8.44609214 L7.0569252,6.39820909 L7.0569252,6.39820909 Z M3.64615494,6.37070832 C3.64153956,6.37070832 3.64153956,6.37070832 3.64615494,6.37070832 C3.64153956,5.65018831 3.64615494,4.92416814 3.64615494,4.20456124 C3.64153956,3.93414064 3.50077028,3.76546213 3.31538862,3.76546213 C3.11923471,3.77096228 2.99692698,3.93414064 2.98308082,4.21006139 L2.98308082,8.40117781 C2.98308082,8.47451676 2.97385005,8.55334512 2.98769621,8.62577096 C3.02384406,8.84577707 3.13308087,8.98603097 3.31461338,8.98053082 C3.49153951,8.97503066 3.60999808,8.84577707 3.6376904,8.62027081 C3.65077033,8.5304314 3.64615494,8.43509184 3.64615494,8.33883916 L3.64615494,6.37070832 L3.64615494,6.37070832 Z M5.36462,6.38170863 L5.36462,4.23846452 C5.36462,3.93963005 5.2430785,3.76545138 5.03769382,3.75995123 C4.828469,3.75445108 4.69769672,3.93963005 4.69769672,4.24946483 L4.69769672,8.49650663 C4.69769672,8.79442799 4.8238446,8.97501992 5.02384766,8.98052008 C5.22923234,8.98602023 5.36462,8.80084126 5.36462,8.49100648 L5.36462,6.38169789 L5.36462,6.38170863 Z"></path>
                    </g>
                </g>
            </g>
        </g>
    </g>
</svg>