<?xml version="1.0" encoding="UTF-8"?>
<svg width="14px" height="14px" viewBox="0 0 14 14" version="1.1" xmlns="http://www.w3.org/2000/svg" xmlns:xlink="http://www.w3.org/1999/xlink">
    <!-- Generator: Sketch 61.2 (89653) - https://sketch.com -->
    <title>删除 (2)</title>
    <desc>Created with Sketch.</desc>
    <g id="11月23日" stroke="none" stroke-width="1" fill="none" fill-rule="evenodd">
        <g id="icon" transform="translate(-68.000000, -84.000000)" fill="#999999" fill-rule="nonzero">
            <g id="分享" transform="translate(68.000000, 84.000000)">
                <path d="M11.0957493,9.3261379 C10.3101923,9.3261379 9.66798355,9.7308249 9.36886481,10.359129 L5.57196691,8.80465221 C5.79344731,8.47442922 5.91513484,8.06966718 5.91513484,7.63321354 C5.91513484,7.4523813 5.89296731,7.27123641 5.84860626,7.10077211 L8.27289738,5.29042373 C8.59410569,5.52465894 9.00384119,5.66309396 9.45763889,5.66309396 C10.5536323,5.66309396 11.3726745,4.87503112 11.3726745,3.83173458 C11.3726745,2.78806284 10.5533594,2 9.45763889,2 C8.3615805,2 7.55358308,2.78805033 7.55358308,3.83173458 C7.55358308,4.09799907 7.60900191,4.34285234 7.69742515,4.55576387 L5.46105129,6.20616596 C5.01837634,5.56724375 4.28769241,5.1198969 3.45747548,5.1198969 C2.10361884,5.1166452 1.00337643,6.17030967 1,7.4733798 C1,7.47694805 1,7.48051717 1,7.48408541 C0.997451231,8.78716805 2.0929119,9.84550998 3.44676854,9.84801129 L3.45755344,9.84801129 C3.96675697,9.84801129 4.44263124,9.7205195 4.83016023,9.48622176 L9.19197935,11.2750589 C9.24746314,12.2652776 10.0444028,13 11.0956973,13 C12.1920156,13 13,12.2121873 13,11.1685781 C13,10.1249689 12.1806329,9.32620043 11.0960222,9.32620043 L11.0957623,9.32620043 L11.0957493,9.3261379 Z" id="路径"></path>
            </g>
        </g>
    </g>
</svg>