<?xml version="1.0" encoding="UTF-8"?>
<svg width="16px" height="21px" viewBox="0 0 16 21" version="1.1" xmlns="http://www.w3.org/2000/svg" xmlns:xlink="http://www.w3.org/1999/xlink">
    <!-- Generator: Sketch 61.2 (89653) - https://sketch.com -->
    <title>编组</title>
    <desc>Created with Sketch.</desc>
    <g id="11月23日" stroke="none" stroke-width="1" fill="none" fill-rule="evenodd">
        <g id="5筛选条件优化" transform="translate(-1086.000000, -16.000000)" fill="#333333" fill-rule="nonzero">
            <g id="编组" transform="translate(1086.000000, 16.000000)">
                <path d="M7.99913234,3.76917144 C10.6312062,3.76917144 12.7650743,5.9395108 12.7650743,8.61657118 L12.7650743,14.3686646 C12.7650743,14.8175408 12.9038439,15.254848 13.163184,15.6181137 L13.9139051,16.6940282 L2.08435955,16.6940282 L2.83508071,15.6181137 C3.09442075,15.254848 3.23319042,14.8175408 3.23319042,14.3686646 L3.23319042,8.61425738 C3.23319042,5.9395108 5.36705845,3.76917144 7.99913234,3.76917144 M7.99913234,2.15414279 C4.49121709,2.15414279 1.64530142,5.04638607 1.64530142,8.61657118 L1.64530142,14.3686646 C1.64530142,14.4820405 1.60890281,14.5907889 1.54520526,14.6810269 L0.196182082,16.606104 C-0.142779897,17.0896871 -0.0313091792,17.7630013 0.444147557,18.1077567 C0.623865653,18.2373292 0.837707439,18.3067431 1.05837396,18.3067431 L14.9398907,18.3067431 C15.5245433,18.3067431 16,17.8254738 16,17.2308286 C16,17.0063905 15.9317526,16.7888938 15.8043575,16.606104 L14.4553343,14.6787131 C14.3916368,14.5884751 14.3552382,14.4797268 14.3552382,14.3663508 L14.3552382,8.61425738 C14.3529633,5.04638607 11.5070476,2.15414279 7.99913234,2.15414279 Z M8.52918698,1.61502865 L7.47135262,1.61502865 C7.03229448,1.61502865 6.67740811,1.25407669 6.67740811,0.807514323 C6.67740811,0.360951961 7.03229448,0 7.47135262,0 L8.52918698,0 C8.96824512,0 9.32313148,0.360951961 9.32313148,0.807514323 C9.32313148,1.25407669 8.96824512,1.61502865 8.52918698,1.61502865 Z M9.85318612,21 L6.6751332,21 C6.23607507,21 5.8811887,20.639048 5.8811887,20.1924857 C5.8811887,19.7459233 6.23607507,19.3849714 6.6751332,19.3849714 L9.85091121,19.3849714 C10.2899693,19.3849714 10.6448557,19.7459233 10.6448557,20.1924857 C10.6448557,20.639048 10.2899693,21 9.85318612,21 Z" id="形状"></path>
            </g>
        </g>
    </g>
</svg>