<?xml version="1.0" encoding="UTF-8"?>
<svg width="16px" height="16px" viewBox="0 0 16 16" version="1.1" xmlns="http://www.w3.org/2000/svg" xmlns:xlink="http://www.w3.org/1999/xlink">
    <!-- Generator: Sketch 61.2 (89653) - https://sketch.com -->
    <title>编组</title>
    <desc>Created with Sketch.</desc>
    <g id="11月23日" stroke="none" stroke-width="1" fill="none" fill-rule="evenodd">
        <g id="icon" transform="translate(-22.000000, -21.000000)" fill="#A9C9FF" fill-rule="nonzero">
            <g id="编组-2" transform="translate(22.000000, 21.000000)">
                <g id="编组" transform="translate(0.000000, 1.000000)">
                    <path d="M14.92893,1.78873239 L13.1152516,1.78873239 C13.0777641,1.78873239 13.0420618,1.79029734 13.0063595,1.79342723 L7.54033248,1.79342723 L7.54033248,0.940532081 C7.54033248,0.420970266 7.06013612,0 6.46747741,0 L1.07821042,0 C0.485551713,0 0.00535534977,0.420970266 0.00535534977,0.940532081 L0.00535534977,3.66197183 L16,3.66197183 L16,2.7370892 L16,2.72613459 C15.9982149,2.21126761 15.5180185,1.78873239 14.92893,1.78873239 Z M1.20138347,4.63849765 L0,4.63849765 L0,12.9483568 C0,13.5273865 0.540890327,14 1.19959835,14 L14.7968314,14 C15.4573246,14 15.9964298,13.5258216 15.9964298,12.9483568 L15.9964298,4.63849765 L1.20138347,4.63849765 Z" id="形状"></path>
                </g>
            </g>
        </g>
    </g>
</svg>