<?xml version="1.0" encoding="UTF-8"?>
<svg width="16px" height="16px" viewBox="0 0 16 16" version="1.1" xmlns="http://www.w3.org/2000/svg" xmlns:xlink="http://www.w3.org/1999/xlink">
    <!-- Generator: Sketch 61.2 (89653) - https://sketch.com -->
    <title>编组 4</title>
    <desc>Created with Sketch.</desc>
    <g id="11月23日" stroke="none" stroke-width="1" fill="none" fill-rule="evenodd">
        <g id="icon" transform="translate(-101.000000, -22.000000)">
            <g id="编组-6备份" transform="translate(101.000000, 22.000000)">
                <g id="编组-4">
                    <path d="M0,8.0127186 C0,12.4387917 3.59232646,16 7.99993266,16 C12.4075389,16 16,12.4133545 16,8.0127186 C16.0253428,3.58664546 12.4330164,0 7.99993266,0 C3.56684898,0 0,3.58664546 0,8.0127186 Z" id="路径" fill="#ED3F14" fill-rule="nonzero" opacity="0.67"></path>
                    <g id="编组-5" fill="#FFFFFF">
                        <g id="编组-13" transform="translate(7.807612, 7.807612) rotate(-315.000000) translate(-7.807612, -7.807612) translate(2.807612, 2.807612)">
                            <path d="M3.61773885,2.56742661 L7.60386922,6.55355698 C7.88192659,6.83161436 7.88192659,7.28243443 7.60386922,7.5604918 C7.32581185,7.83854917 6.87499178,7.83854917 6.59693441,7.5604918 L2.61080403,3.57436142 C2.33274666,3.29630405 2.33274666,2.84548398 2.61080403,2.56742661 C2.8888614,2.28936924 3.33968148,2.28936924 3.61773885,2.56742661 Z" id="矩形" transform="translate(5.107337, 5.063959) rotate(315.000000) translate(-5.107337, -5.063959) "></path>
                            <path d="M7.6107849,3.55361438 L3.5969918,7.56740748 C3.32275386,7.84164542 2.8781263,7.84164542 2.60388835,7.56740748 C2.32965041,7.29316953 2.32965041,6.84854198 2.60388835,6.57430403 L6.61768146,2.56051093 C6.8919194,2.28627298 7.33654696,2.28627298 7.6107849,2.56051093 C7.88502285,2.83474887 7.88502285,3.27937643 7.6107849,3.55361438 Z" id="矩形备份-3" transform="translate(5.107337, 5.063959) rotate(315.000000) translate(-5.107337, -5.063959) "></path>
                        </g>
                    </g>
                </g>
            </g>
        </g>
    </g>
</svg>