<?xml version="1.0" encoding="UTF-8"?>
<svg width="16px" height="16px" viewBox="0 0 16 16" version="1.1" xmlns="http://www.w3.org/2000/svg" xmlns:xlink="http://www.w3.org/1999/xlink">
    <!-- Generator: Sketch 61.2 (89653) - https://sketch.com -->
    <title>编组 4</title>
    <desc>Created with Sketch.</desc>
    <g id="11月23日" stroke="none" stroke-width="1" fill="none" fill-rule="evenodd">
        <g id="icon" transform="translate(-78.000000, -22.000000)" fill-rule="nonzero">
            <g id="编组-6" transform="translate(78.000000, 22.000000)">
                <g id="编组-4">
                    <path d="M0,8.0127186 C0,12.4387917 3.59232646,16 7.99993266,16 C12.4075389,16 16,12.4133545 16,8.0127186 C16.0253428,3.58664546 12.4330164,0 7.99993266,0 C3.56684898,0 0,3.58664546 0,8.0127186 Z" id="路径" fill="#48CFAE"></path>
                    <path d="M6.45190806,9.32703497 L9.87232892,5.24075984 C10.0906536,4.96157334 10.5030448,4.91081216 10.7698862,5.16461806 C11.0367275,5.39304337 11.0852441,5.82451342 10.8426611,6.10369993 L10.8184028,6.12908052 L6.93707415,10.7737287 C6.69449111,11.0529152 6.30635825,11.0782957 6.03951689,10.8244898 C6.01525859,10.7991092 5.99100028,10.7991092 5.9910003,10.7737287 L4.1473692,8.64175901 C3.92904447,8.36257251 3.95330276,7.95648306 4.2201441,7.70267716 C4.48698544,7.47425184 4.8751183,7.49963242 5.09344305,7.75343833 L6.45190806,9.32703497 Z" id="路径" fill="#FFFFFF"></path>
                </g>
            </g>
        </g>
    </g>
</svg>