<?xml version="1.0" encoding="UTF-8"?>
<svg width="14px" height="14px" viewBox="0 0 14 14" version="1.1" xmlns="http://www.w3.org/2000/svg" xmlns:xlink="http://www.w3.org/1999/xlink">
    <!-- Generator: Sketch 61.2 (89653) - https://sketch.com -->
    <title>上移（面）</title>
    <desc>Created with Sketch.</desc>
    <g id="11月23日" stroke="none" stroke-width="1" fill="none" fill-rule="evenodd">
        <g id="icon" transform="translate(-26.000000, -84.000000)">
            <g id="上移" transform="translate(26.000000, 84.000000)">
                <path d="M11.9390839,7.48415218 L7.17193568,2.07827845 C7.129069,2.02862128 7.06619676,2 6.99998175,2 C6.93376675,2 6.8708945,2.02862128 6.82802783,2.07827845 L2.06087961,7.48415218 C1.92551163,7.6377486 2.03039133,7.8861428 2.23283354,7.8861428 L4.58409007,7.8861428 L4.58409007,13.7600056 C4.58409007,13.8920025 4.68775024,14 4.81702056,14 L9.18416248,14 C9.31221327,14 9.41709297,13.8920025 9.41709297,13.7600056 L9.41709297,7.8861428 L11.7683495,7.8861428 C11.9695722,7.8861428 12.0744519,7.63774861 11.9390839,7.48415218 Z" id="路径" fill="#999999" fill-rule="nonzero"></path>
                <g id="编组" transform="translate(2.000000, 2.000000)"></g>
            </g>
        </g>
    </g>
</svg>