<?xml version="1.0" encoding="UTF-8"?>
<svg width="14px" height="15px" viewBox="0 0 14 15" version="1.1" xmlns="http://www.w3.org/2000/svg" xmlns:xlink="http://www.w3.org/1999/xlink">
    <!-- Generator: Sketch 61.2 (89653) - https://sketch.com -->
    <title>上移（面）</title>
    <desc>Created with Sketch.</desc>
    <g id="11月23日" stroke="none" stroke-width="1" fill="none" fill-rule="evenodd">
        <g id="icon" transform="translate(-46.000000, -83.000000)">
            <g id="下移" transform="translate(53.000000, 91.000000) rotate(-180.000000) translate(-53.000000, -91.000000) translate(46.000000, 84.000000)">
                <path d="M11.9390839,5.48415218 L7.17193568,0.0782784456 C7.129069,0.0286212798 7.06619676,0 6.99998175,0 C6.93376675,0 6.8708945,0.0286212798 6.82802783,0.0782784456 L2.06087961,5.48415218 C1.92551163,5.6377486 2.03039133,5.8861428 2.23283354,5.8861428 L4.58409007,5.8861428 L4.58409007,11.7600056 C4.58409007,11.8920025 4.68775024,12 4.81702056,12 L9.18416248,12 C9.31221327,12 9.41709297,11.8920025 9.41709297,11.7600056 L9.41709297,5.8861428 L11.7683495,5.8861428 C11.9695722,5.8861428 12.0744519,5.63774861 11.9390839,5.48415218 Z" id="路径" fill="#999999" fill-rule="nonzero"></path>
                <g id="编组" transform="translate(2.000000, 2.000000)"></g>
            </g>
        </g>
    </g>
</svg>