<?xml version="1.0" encoding="UTF-8"?>
<svg width="16px" height="16px" viewBox="0 0 16 16" version="1.1" xmlns="http://www.w3.org/2000/svg" xmlns:xlink="http://www.w3.org/1999/xlink">
    <g id="2月5日运营看板" stroke="none" stroke-width="1" fill="none" fill-rule="evenodd">
        <g id="主题看板-卡券备份-6" transform="translate(-1234.000000, -71.000000)" fill="#FFFFFF" fill-rule="nonzero">
            <g id="编组-16" transform="translate(1234.000000, 71.000000)">
                <g id="编组" transform="translate(0.000000, 1.000000)">
                    <path d="M0,12 L15,12 L15,14 L0,14 L0,12 Z M11.7072348,6.82827643 L8.33658452,10.6224104 C8.12725503,10.8507447 7.83170548,10.9998968 7.5,10.9998968 C7.19227995,11.004282 6.89459972,10.8688021 6.66689253,10.620734 L3.28858186,6.83078291 C3.1126511,6.62661835 3,6.36244465 3,6.06995092 C3,5.44162082 3.50417277,4.93246266 4.12516638,4.93246266 L4.15090473,4.93329273 L4.15090473,4.92746597 L6.37482004,4.92746597 L6.37482004,2.13748826 C6.37482004,1.50917443 6.8789928,1 7.5,1 C8.1210072,1 8.62517996,1.50832809 8.62517996,2.13748826 L8.62517996,4.92746597 L10.8080633,4.92746597 L10.8080633,4.93579922 C10.8303246,4.93579922 10.8518796,4.93246266 10.8748336,4.93246266 C11.4958272,4.93246266 12,5.44246716 12,6.07079727 C12,6.36246092 11.8873489,6.62744842 11.7079275,6.8291065 L11.7072348,6.82827643 Z M5,5.68434189e-14 L10,5.68434189e-14 L10,8 L5,8 L5,5.68434189e-14 Z" id="形状"></path>
                </g>
            </g>
        </g>
    </g>
</svg>
