<?xml version="1.0" encoding="UTF-8"?>
<svg width="13px" height="13px" viewBox="0 0 13 13" version="1.1" xmlns="http://www.w3.org/2000/svg" xmlns:xlink="http://www.w3.org/1999/xlink">
    <title>形状结合</title>
    <g id="2月5日运营看板" stroke="none" stroke-width="1" fill="none" fill-rule="evenodd">
        <g id="主题看板-卡券备份-6" transform="translate(-20.000000, -218.000000)">
            <g id="编组-20" transform="translate(0.000000, 205.000000)">
                <g id="编组-10备份-3" transform="translate(20.000000, 12.000000)">
                    <path d="M12.5125,2 L0.487499991,2 C0.218261179,2 0,2.2301801 0,2.51412164 C0,2.79806318 0.218261179,3.02824327 0.487499991,3.02824328 L0.974999997,3.02824328 L0.974999997,10.568694 C0.974999997,11.1365771 1.41152237,11.5969373 1.95,11.5969373 L3.536,11.5969373 L2.0943,13.1173663 C1.90367893,13.3180184 1.90338791,13.6436465 2.09365,13.8446771 C2.2839121,14.0457077 2.59267891,14.0460146 2.78329999,13.8453626 L4.9153,11.5969373 L8.0873,11.5969373 L10.2206,13.8467336 C10.343322,13.9771959 10.5223794,14.0293604 10.6912,13.9838327 C10.8591997,13.9356933 10.9902421,13.7969539 11.035232,13.6195934 C11.080222,13.4422328 11.0323685,13.2530225 10.9096,13.1228503 L9.4653,11.5969373 L11.05,11.5969373 C11.5884776,11.5969373 12.025,11.1365771 12.025,10.568694 L12.025,3.02824328 L12.5125,3.02824328 C12.7817388,3.02824327 13,2.79806318 13,2.51412164 C13,2.2301801 12.7817388,2 12.5125,2 L12.5125,2 Z M10.8727149,5.81507361 L10.835218,5.85371721 L8.21042962,8.18432636 C8.11818051,8.26622375 7.99676526,8.31709646 7.86695732,8.32824048 L7.81296169,8.32824048 C7.66380676,8.32827057 7.52077957,8.27552465 7.41549374,8.18166129 L5.564643,6.53997435 L2.96085298,8.85326049 C2.74133749,9.04865268 2.38509681,9.04895098 2.16516715,8.85392675 C1.94523749,8.65890253 1.94490173,8.34240749 2.16441721,8.14701529 L5.1641753,5.48193908 C5.23070945,5.42321892 5.31267616,5.38016709 5.40265606,5.3566805 L5.45515182,5.34468766 C5.49032719,5.33932818 5.52595435,5.33665334 5.56164323,5.33669243 L5.61563888,5.33669243 C5.68835129,5.34323364 5.75905368,5.36176156 5.82412208,5.3913265 L5.8721182,5.41664472 C5.90314652,5.43568635 5.93225367,5.45708746 5.95911118,5.48060655 L7.81296169,7.12362603 L10.0402821,5.14613948 C10.2598775,4.95128684 10.6156225,4.95128684 10.835218,5.14613948 C11.0396354,5.32731241 11.0558599,5.61675316 10.8727149,5.81507361 Z" id="形状" fill="#FFFFFF" fill-rule="nonzero"></path>
                    <g id="编组" transform="translate(0.000000, 0.428571)"></g>
                </g>
            </g>
        </g>
    </g>
</svg>