<?xml version="1.0" encoding="UTF-8"?>
<svg width="14px" height="14px" viewBox="0 0 14 14" version="1.1" xmlns="http://www.w3.org/2000/svg" xmlns:xlink="http://www.w3.org/1999/xlink">
    <!-- Generator: Sketch 61.2 (89653) - https://sketch.com -->
    <title>编组备份 11</title>
    <desc>Created with Sketch.</desc>
    <g id="标签系统" stroke="none" stroke-width="1" fill="none" fill-rule="evenodd">
        <g id="标签系统切图" transform="translate(-45.000000, -102.000000)" fill="#B8B8B8" fill-rule="nonzero">
            <g id="编组-2" transform="translate(45.000000, 102.000000)">
                <g id="编组备份-11" transform="translate(0.000000, 1.000000)">
                    <path d="M12.4688474,11.1254053 C12.4688474,11.6093892 12.076324,12 11.5934579,12 L0.65576324,12 L2.18691589,4.93165608 C2.18691589,4.44922838 2.57632399,4.05706134 3.06074766,4.05706134 L13.1261682,4.05706134 C13.6090343,4.05706134 14,4.44922838 14,4.93165608 L12.4688474,11.1254053 L12.4688474,11.1254053 Z M2.40498442,3.40033718 L12.2492212,3.40033718 L12.2492212,2.54130463 C12.2492212,2.05887693 11.8566978,1.66670989 11.3738318,1.66670989 L6.12461059,1.66670989 L6.12461059,0.874594735 C6.12461059,0.392167034 5.73208723,0 5.24922118,0 L0.875389408,0 C0.392523364,0 0,0.392167034 0,0.874594735 L0,11.123849 L1.52959502,4.2733757 C1.52959502,3.79250421 1.92211838,3.40033718 2.40498442,3.40033718 Z" id="形状"></path>
                </g>
            </g>
        </g>
    </g>
</svg>