<?xml version="1.0" standalone="no"?><!DOCTYPE svg PUBLIC "-//W3C//DTD SVG 1.1//EN" "http://www.w3.org/Graphics/SVG/1.1/DTD/svg11.dtd"><svg class="icon" width="128px" height="128.00px" viewBox="0 0 1024 1024" version="1.1" xmlns="http://www.w3.org/2000/svg"><path d="M892.347733 204.8H131.652267C115.575467 204.8 102.4 218.624 102.4 235.52v552.96c0 16.896 13.175467 30.72 29.252267 30.72h760.695466c16.0768 0 29.252267-13.824 29.252267-30.72V235.52c0-16.896-13.175467-30.72-29.252267-30.72zM307.2 413.696c2.935467-46.08 38.775467-82.944 82.6368-86.016 51.2-3.072 93.627733 39.185067 93.627733 92.16 0 50.688-39.492267 92.16-87.7568 92.16-51.2 0.785067-92.16-44.544-88.507733-98.304z m263.304533 267.264c0 8.465067-6.587733 15.36-14.609066 15.36H234.052267a15.0528 15.0528 0 0 1-14.609067-15.36V634.88c0-61.44 117.009067-92.16 175.5136-92.16 58.538667 0 175.547733 30.72 175.547733 92.16v46.08z m234.052267-199.68h-117.009067v-30.72h117.009067v30.72z m0-61.44h-234.052267v-30.72h234.052267v30.72z m0-61.44h-234.052267v-30.72h234.052267v30.72z" fill="#FFFFFF" /></svg>