<?xml version="1.0" encoding="UTF-8"?>
<svg width="14px" height="14px" viewBox="0 0 14 14" version="1.1" xmlns="http://www.w3.org/2000/svg" xmlns:xlink="http://www.w3.org/1999/xlink">
    <g id="4月13日新增漏斗图和画像列表页面修改" stroke="none" stroke-width="1" fill="none" fill-rule="evenodd">
        <g id="1用户列表（列表页优化）" transform="translate(-1111.000000, -468.000000)">
            <g id="编组-13" transform="translate(155.000000, 463.000000)">
                <g id="编组-12备份-8" transform="translate(16.000000, 0.000000)">
                    <g id="编组-4" transform="translate(934.000000, 0.000000)">
                        <g id="编组-11" transform="translate(6.000000, 5.000000)">
                            <g id="编组" transform="translate(1.000000, 2.000000)"></g>
                            <g id="编组" transform="translate(2.000000, 2.000000)" fill="#999999" fill-rule="nonzero">
                                <path d="M9.70287302,2.24739782 L5.20311411,0.047430216 C5.07380653,-0.015810072 4.92619347,-0.015810072 4.79688589,0.047430216 L0.297126983,2.24739782 C0.116458486,2.33561761 0,2.53264724 0,2.75009042 C0,2.96753361 0.116458486,3.16456323 0.297126983,3.25278302 L4.79688589,5.45275064 C4.92623994,5.51574966 5.07376006,5.51574966 5.20311411,5.45275064 L9.70287302,3.25278302 C9.88354151,3.16456323 10,2.96753361 10,2.75009042 C10,2.53264724 9.88354151,2.33561761 9.70287302,2.24739782 Z M4.999875,8.24999986 C4.92994917,8.24999986 4.8607967,8.23212147 4.79688449,8.19744821 L0.29709467,5.75319422 C0.0447123366,5.61609254 -0.0689460561,5.25489532 0.0432315421,4.94643765 C0.15540914,4.63797997 0.450943357,4.49906849 0.703325697,4.63617015 L4.999875,6.97012718 L9.2966743,4.63617015 C9.54905664,4.49906849 9.84459086,4.63797997 9.95676846,4.94643765 C10.0689461,5.25489532 9.95528766,5.61609254 9.70290533,5.75319422 L5.20311551,8.19744821 C5.1391263,8.2321633 5.06988508,8.25006685 4.999875,8.24999986 Z M4.99987501,10.9999998 C4.92994918,10.9999998 4.86079671,10.9821214 4.7968845,10.9474482 L0.297094679,8.50319417 C0.0447123398,8.3660925 -0.068946058,8.00489527 0.0432315425,7.6964376 C0.155409143,7.38797992 0.450943367,7.24906843 0.703325706,7.38617011 L4.99987501,9.72012713 L9.29667431,7.38617011 C9.54905665,7.24906845 9.84459086,7.38797994 9.95676846,7.6964376 C10.0689461,8.00489527 9.95528767,8.36609249 9.70290534,8.50319417 L5.20311552,10.9474482 C5.13912631,10.9821632 5.06988509,11.0000668 4.99987501,10.9999998 Z" id="形状"></path>
                            </g>
                        </g>
                    </g>
                </g>
            </g>
        </g>
    </g>
</svg>
