<?xml version="1.0" standalone="no"?>
<!DOCTYPE svg PUBLIC "-//W3C//DTD SVG 1.1//EN" "http://www.w3.org/Graphics/SVG/1.1/DTD/svg11.dtd" >
<!--
2013-9-30: Created.
-->
<svg>
<metadata>
Created by iconfont
</metadata>
<defs>

<font id="iconfont" horiz-adv-x="1024" >
  <font-face
    font-family="iconfont"
    font-weight="500"
    font-stretch="normal"
    units-per-em="1024"
    ascent="896"
    descent="-128"
  />
    <missing-glyph />
    
    <glyph glyph-name="jianhao" unicode="&#58885;" d="M512 864C246.912 864 32 649.088 32 384c0-265.088 214.912-480 480-480s480 214.912 480 480c0 265.088-214.912 480-480 480z m256-512H256v64h512v-64z"  horiz-adv-x="1024" />

    
    <glyph glyph-name="jiahao" unicode="&#58884;" d="M828.02 699.482C743.477 783.616 631.108 829.95 511.546 829.95c-119.558 0-231.954-46.333-316.5-130.467-84.578-84.162-131.17-196.112-131.17-315.195 0-119.112 46.592-231.028 131.135-315.189 84.548-84.133 196.946-130.467 316.507-130.467 119.56 0 231.96 46.334 316.474 130.467 84.611 84.19 131.198 196.14 131.169 315.222 0.03 119.086-46.529 231-131.141 315.162z m-92.63-347.167H543.525v-191.863c0-17.683-14.326-31.975-31.98-31.975-17.646 0-31.973 14.292-31.973 31.975V352.31500000000005H287.711c-17.648 0-31.972 14.324-31.972 31.972 0 17.653 14.324 31.98 31.972 31.98h191.863v191.86c0 17.649 14.326 31.975 31.973 31.975 17.654 0 31.98-14.326 31.98-31.974v-191.861h191.862c17.682 0 31.973-14.327 31.973-31.98 0-17.648-14.291-31.972-31.973-31.972z m0 0"  horiz-adv-x="1024" />

    
    <glyph glyph-name="shiyongtongji_jiaodian" unicode="&#58920;" d="M448.13783641 382.19258141V1155.76823746c-397.93358427-33.738503-710.91843726-367.80992107-710.91843993-773.57565605 0-428.05724751 348.22953903-776.58802211 776.58802211-776.58802473 403.95831644 0 736.82478963 309.97248956 773.27442046 704.5924696H520.13338886c-39.76323514 0-71.99555249 32.23232001-71.99555245 71.99555513z m391.60761396 761.22495363v-453.96359454h437.39558119c-54.82506542 167.487565-272.9203823 393.71627074-437.39558119 453.96359454zM512 1732.03390347C-232.35570476 1732.03390347-836.03390347 1128.35570476-836.03390347 384S-232.35570476-964.03390347 512-964.03390347 1860.03390347-360.35570476 1860.03390347 384 1256.35570476 1732.03390347 512 1732.03390347z m1.80741859-2270.11921617c-507.58371515 0-920.27789419 412.69417899-920.2778915 920.27789411s412.99541462 920.27789419 920.2778915 920.2778915h6.32597027c38.55828767-1.50618302 71.69431694-33.43726486 71.69431694-71.99555244v-776.28678655h770.26205446c39.76323514 0 71.99555249-32.23232001 71.99555244-71.99555251 0-507.58371515-412.69417899-920.27789419-920.27789411-920.27789411z m848.28234167 1083.84938111H768.05113344c-39.76323514 0-71.99555249 32.23232001-71.99555515 71.99555249V1230.47492047c0 19.27914383 7.83215335 37.65457836 21.38780061 51.21022565 13.85688546 13.55564727 32.53355554 20.78532687 51.51146384 20.78532679C1030.12699633 1298.25316203 1434.0853127 882.24538139 1434.0853127 617.45838537c0-39.76323514-32.23232001-71.69431694-71.99555244-71.69431696z"  horiz-adv-x="1024" />

    
    <glyph glyph-name="kaoqinguanlix" unicode="&#58933;" d="M150.588235 896h722.82353c83.169882 0 150.588235-67.418353 150.588235-150.588235v-722.82353c0-83.169882-67.418353-150.588235-150.588235-150.588235H150.588235C67.418353-128 0-60.581646999999975 0 22.588235000000054V745.4117650000001C0 828.581647 67.418353 896 150.588235 896z m192.858353-258.981647v4.080941c-1.234824 0-1.716706 0-2.213647-0.240941-16.941176 0-34.032941 0.120471-50.974117-0.120471-5.285647 0-10.691765-0.602353-15.856942-1.807058-25.178353-5.647059-48.760471-25.494588-48.519529-58.804706 0.602353-83.712 0.256-167.529412 0.256-251.241412v-188.084706c0-17.92 7.122824-32.361412 21.368471-43.550118 13.251765-10.330353 28.611765-14.426353 45.447529-14.426353 146.311529 0 292.623059 0 438.949647 0.120471 6.505412 0 13.131294 0.602353 19.395765 2.048 24.952471 5.647059 47.796706 25.856 47.555764 57.374118-0.496941 75.399529-0.135529 150.919529-0.135529 226.334117V583.0174119999999c0 13.462588-4.050824 25.615059-13.251765 35.84-13.763765 15.149176-31.457882 21.880471-51.847529 22.13647-16.459294 0.105412-33.054118 0-49.513412 0-0.858353 0-1.716706 0-2.951529-0.135529v-3.719529c0-12.047059-0.120471-24.064 0-36.080942 0-9.863529-4.171294-17.679059-12.272941-23.341176-10.571294-7.213176-21.985882-8.417882-33.912471-4.201412-12.047059 4.216471-20.886588 14.908235-20.269177 28.506353 0.496941 11.896471 0.120471 23.928471 0.120471 35.84 0 1.069176-0.120471 2.168471-0.120471 3.117177H409.660235v-41.246118c0-8.884706-3.915294-15.872-11.053176-21.037177-12.528941-9.140706-26.157176-9.863529-39.800471-2.770823-8.839529 4.562824-14.742588 12.016941-15.104 22.241882-0.376471 12.995765-0.256 25.871059-0.256 38.851765z m411.211294-98.755765v-3.975529c0-125.590588 0-251.316706 0.120471-376.892235 0-13.552941-8.779294-21.097412-18.055529-22.603295-2.800941-0.406588-5.722353-0.542118-8.538353-0.542117H294.851765c-7.439059 0-14.396235 1.505882-19.877647 7.664941a20.103529 20.103529 0 0 0-4.99953 13.146353V538.262588h484.698353z m-367.164235 95.36753c-0.120471 12.649412-0.120471 25.434353 0 38.219294 0 4.638118-1.701647 8.146824-5.089882 10.149647a22.919529 22.919529 0 0 1-9.261177 3.132235c-9.487059 0.632471-15.043765-5.632-15.043764-16.037647v-71.800471c0-1.249882 0-2.499765 0.240941-3.764705 1.008941-6.384941 6.204235-10.646588 13.552941-11.14353 10.059294-0.632471 15.600941 5.135059 15.600941 16.158118v35.087059z m242.401882 0.135529c0-12.498824 0.120471-24.982588 0.120471-37.586823-0.105412-5.752471 2.364235-9.366588 6.761412-11.866353 3.373176-1.987765 7.198118-2.364235 10.917647-1.626353 6.174118 1.129412 11.700706 5.632 11.595294 14.607058-0.240941 24.350118-0.120471 48.579765-0.120471 72.794353 0 1.249882 0 2.499765-0.225882 3.764706-1.024 5.857882-5.180235 9.728-11.941647 10.962824-10.014118 2.002824-17.106824-4.608-17.106824-15.721412v-35.328zM489.261176 259.37317599999994a104.463059 104.463059 0 0 0-3.674352 4.156236c-22.738824 26.127059-45.613176 52.254118-68.472471 78.396235-4.668235 5.240471-10.435765 8.432941-17.814588 7.559529-12.905412-1.581176-21.278118-15.134118-18.688-29.545411 1.355294-7.318588 6.144-12.453647 10.812235-17.829647 27.286588-31.126588 54.573176-62.509176 81.859765-93.650824 9.456941-10.872471 22.497882-10.736941 31.834353 0l154.503529 176.926118c6.761412 7.830588 8.598588 16.715294 5.647059 26.503529-2.454588 8.176941-7.740235 13.914353-16.338824 15.75153-7.981176 1.701647-14.381176-1.716706-19.546353-7.695059-38.098824-43.715765-76.077176-87.311059-114.176-130.906353-8.613647-9.758118-17.091765-19.531294-25.946353-29.665883z"  horiz-adv-x="1024" />

    
    <glyph glyph-name="wodedaibanx" unicode="&#58934;" d="M150.588235 896h722.82353c83.169882 0 150.588235-67.418353 150.588235-150.588235v-722.82353c0-83.169882-67.418353-150.588235-150.588235-150.588235H150.588235C67.418353-128 0-60.581646999999975 0 22.588235000000054V745.4117650000001C0 828.581647 67.418353 896 150.588235 896z m453.466353-328.131765h187.843765c14.049882 0 21.263059 6.851765 21.278118 20.133647v15.781647c0 13.417412-7.228235 20.148706-21.624471 20.148706h-374.964706c-13.522824 0-20.901647-6.987294-20.901647-19.772235 0-5.150118 0.331294-10.315294-0.060235-15.420235-1.008941-12.709647 8.026353-21.112471 22.437647-21.022118 61.982118 0.361412 123.994353 0.150588 185.97647 0.150588z m0.602353-160.783059h-187.482353c-14.546824 0-21.624471-6.716235-21.62447-20.48v-15.073882c0-13.793882 7.077647-20.495059 21.639529-20.495059h225.882353c49.197176 0 98.394353 0.240941 147.606588-0.150588 13.989647-0.120471 23.461647 7.936 22.422588 20.992-0.391529 4.758588-0.060235 9.577412-0.060235 14.366118-0.015059 14.260706-6.942118 20.841412-22.016 20.841411H604.672zM599.988706 134.02352900000005h184.666353c13.251765 0 20.48 7.017412 20.510117 19.84753v16.158117c-0.015059 13.462588-7.077647 20.208941-21.217882 20.208942H415.683765c-12.754824 0-20.118588-7.137882-20.133647-19.486118v-16.504471c0-13.477647 7.077647-20.224 21.217882-20.224h183.205647zM347.331765 571.3167060000001c0 16.429176 0.060235 32.873412 0 49.332706-0.060235 11.489882-7.890824 19.305412-19.425883 19.32047-32.512 0.045176-65.008941 0.045176-97.520941 0-11.745882 0-19.516235-7.830588-19.531294-19.591529-0.045176-32.391529-0.045176-64.783059 0-97.174588 0-11.971765 7.770353-19.696941 19.802353-19.712 32.256-0.030118 64.512-0.030118 96.783059 0 12.197647 0.015059 19.862588 7.710118 19.877647 19.983059 0.045176 15.932235 0.015059 31.879529 0.015059 47.841882z m0.015059-385.460706c0 16.067765 0.030118 32.150588 0 48.203294-0.030118 12.8-7.529412 20.404706-20.224 20.419765h-96.075295c-12.694588-0.015059-20.224-7.619765-20.224-20.419765v-95.683765c0-12.8 7.529412-20.389647 20.224-20.404705h96.075295c12.679529 0 20.208941 7.604706 20.224 20.404705v47.480471z m16.067764 262.731294c-0.692706 4.758588-4.141176 7.770353-8.086588 6.324706a21.714824 21.714824 0 0 1-7.228235-4.608 22819.162353 22819.162353 0 0 1-83.907765-79.525647c-1.957647-1.852235-3.207529-2.108235-5.391059-0.301177-10.616471 8.884706-21.338353 17.618824-32.075294 26.352942a25.253647 25.253647 0 0 1-4.126118 2.921411c-3.418353 1.776941-6.595765 0.948706-9.33647-1.536-2.680471-2.424471-2.981647-5.571765-1.716706-8.82447 0.752941-1.807059 1.701647-3.523765 2.876235-5.089883 12.182588-16.986353 24.395294-33.942588 36.638118-50.883764 1.129412-1.596235 2.424471-3.056941 3.870118-4.352 3.087059-2.680471 6.475294-3.056941 9.637647-0.873412 1.852235 1.28 3.463529 3.026824 4.939294 4.773647 6.671059 7.936 13.251765 15.947294 19.877647 23.928471 23.371294 28.16 46.742588 56.32 70.038588 84.555294 1.686588 2.078118 2.680471 4.758588 3.990588 7.137882z"  horiz-adv-x="1024" />

    
    <glyph glyph-name="wodexiaobaibanx" unicode="&#58937;" d="M150.588235 896h722.82353c83.169882 0 150.588235-67.418353 150.588235-150.588235v-722.82353c0-83.169882-67.418353-150.588235-150.588235-150.588235H150.588235C67.418353-128 0-60.581646999999975 0 22.588235000000054V745.4117650000001C0 828.581647 67.418353 896 150.588235 896z m650.360471-741.345882H231.062588a5.150118 5.150118 0 0 1-5.180235-5.12v-10.270118c0-2.831059 2.319059-5.12 5.180235-5.12h243.365647L410.684235 82.82352900000001h32.13553l63.759059 51.320471h19.184941L589.492706 82.82352900000001h32.150588l-63.698823 51.320471h243.004235c2.861176 0 5.180235 2.288941 5.180235 5.12v10.270118a5.150118 5.150118 0 0 1-5.180235 5.12z m-243.501177 500.675764h-31.081411V685.176471h-20.720942v-29.846589h-31.081411v-19.877647h82.883764v19.877647z m227.960471-53.052235h-538.804706c-11.444706 0-20.720941-9.276235-20.720941-20.720941v-373.007059c0-11.444706 9.276235-20.736 20.720941-20.736h538.804706c11.444706 0 20.720941 9.291294 20.720941 20.736v373.007059c0 11.444706-9.276235 20.720941-20.720941 20.720941z"  horiz-adv-x="1024" />

    
    <glyph glyph-name="yuangonggaiyaox" unicode="&#58940;" d="M150.588235 896h722.82353c83.169882 0 150.588235-67.418353 150.588235-150.588235v-722.82353c0-83.169882-67.418353-150.588235-150.588235-150.588235H150.588235C67.418353-128 0-60.581646999999975 0 22.588235000000054V745.4117650000001C0 828.581647 67.418353 896 150.588235 896z m593.182118-286.117647H280.169412A69.451294 69.451294 0 0 1 210.823529 540.355765v-312.771765A69.391059 69.391059 0 0 1 280.169412 158.11764700000003h463.661176A69.421176 69.421176 0 0 1 813.176471 227.58399999999995v312.771765C813.116235 578.755765 782.064941 609.882353 743.770353 609.882353zM282.172235 259.041882a13.974588 13.974588 0 0 0-10.857411 16.414118 123.964235 123.964235 0 0 0 86.663529 96.301176 73.351529 73.351529 0 0 0-38.068706 64.406589c0 40.463059 32.150588 73.336471 71.634824 73.33647 39.469176 0 71.634824-32.933647 71.634823-73.33647a73.351529 73.351529 0 0 0-38.098823-64.406589 123.798588 123.798588 0 0 0 86.678588-96.677647 13.974588 13.974588 0 0 0-10.902588-16.338823 12.769882 12.769882 0 0 0-2.56-0.225882l-216.124236 0.527058zM597.534118 469.338353h99.96047c7.951059 0 15.269647-11.595294 15.269647-20.088471 0-8.493176-7.318588-20.073412-15.269647-20.073411h-99.96047c-7.951059 0-15.269647 11.580235-15.269647 20.073411 0 8.508235 7.318588 20.088471 15.269647 20.088471z m0-80.323765h99.96047c7.951059 0 15.269647-11.565176 15.269647-20.073412s-7.318588-20.073412-15.269647-20.073411h-99.96047c-7.951059 0-15.269647 11.565176-15.269647 20.073411s7.318588 20.073412 15.269647 20.073412zM738.334118 278.58823500000005h-141.477647c-7.589647 0-14.607059 11.580235-14.607059 20.073412 0 8.508235 7.017412 20.088471 14.607059 20.088471h141.477647c7.589647 0 14.592-11.595294 14.592-20.088471 0-8.493176-7.002353-20.073412-14.592-20.073412z"  horiz-adv-x="1024" />

    
    <glyph glyph-name="bangzhuzhongxin" unicode="&#58941;" d="M150.588235 896h722.82353c83.169882 0 150.588235-67.418353 150.588235-150.588235v-722.82353c0-83.169882-67.418353-150.588235-150.588235-150.588235H150.588235C67.418353-128 0-60.581647 0 22.588235V745.411765C0 828.581647 67.418353 896 150.588235 896z m368.128-309.443765c8.673882-1.129412 17.468235-1.686588 26.006589-3.493647 38.490353-8.116706 54.814118-57.705412 29.394823-87.883294-15.420235-18.311529-34.304-32.466824-53.308235-46.531765-48.700235-36.080941-74.029176-84.148706-73.758118-145.01647a46.682353 46.682353 0 0 1 5.451294-21.157647c9.005176-16.685176 24.124235-23.642353 42.797177-25.22353 33.400471-2.816 59.723294 25.645176 57.494588 52.464942-0.828235 9.878588 0.662588 20.464941 3.403294 30.057411 5.421176 18.989176 19.079529 32.557176 34.153412 44.333177 20.630588 16.082824 42.480941 30.674824 62.509176 47.450353 20.705882 17.347765 34.575059 39.725176 39.378824 66.846117 4.818824 27.075765 2.349176 53.835294-5.51153 80.00753-16.007529 53.368471-52.540235 85.564235-105.472 99.764706-29.967059 8.026353-60.611765 8.402824-91.301647 4.894117-47.841882-5.466353-90.051765-23.521882-124.807529-57.344-14.441412-14.034824-25.946353-30.358588-31.367529-50.115764-3.764706-13.793882-4.005647-27.678118 4.668235-39.981177 14.848-21.037176 46.426353-27.000471 69.451294-14.004706 10.992941 6.219294 17.829647 16.158118 25.374118 25.615059 10.194824 12.8 21.534118 24.184471 37.104941 30.569412 15.510588 6.339765 31.744 7.740235 48.338823 8.749176z m41.532236-443.105882v8.914823c-0.030118 22.768941-11.038118 38.701176-31.156706 48.278589-18.221176 8.688941-37.376 8.312471-56.048941 1.927529-17.061647-5.827765-30.418824-17.046588-35.072-35.041882-2.484706-9.637647-1.972706-20.148706-2.123295-30.268236-0.331294-22.256941 11.414588-37.225412 30.328471-46.998588 14.757647-7.649882 30.795294-8.809412 46.938353-6.144 17.92 2.966588 31.924706 12.257882 41.185882 28.175059 5.888 10.119529 6.144 21.232941 5.948236 31.156706z"  horiz-adv-x="1024" />

    
    <glyph glyph-name="dianjian" unicode="&#58942;" d="M150.588235 896h722.82353c83.169882 0 150.588235-67.418353 150.588235-150.588235v-722.82353c0-83.169882-67.418353-150.588235-150.588235-150.588235H150.588235C67.418353-128 0-60.581647 0 22.588235V745.411765C0 828.581647 67.418353 896 150.588235 896z m609.686589-256H263.725176A52.901647 52.901647 0 0 1 210.823529 587.068235V190.945882a52.901647 52.901647 0 0 1 52.901647-52.901647h496.549648A52.901647 52.901647 0 0 1 813.176471 190.945882V587.068235A52.901647 52.901647 0 0 1 760.274824 640zM700.235294 450.108235h-225.882353a12.559059 12.559059 0 0 0 0 25.088h225.882353a12.559059 12.559059 0 0 0 0-25.088z m0-150.588235h-225.882353a12.559059 12.559059 0 0 0 0 25.088h225.882353a12.559059 12.559059 0 0 0 0-25.088zM403.621647 482.213647l-53.232941-53.232941a12.559059 12.559059 0 0 0-17.739294 0l-17.769412 17.739294a12.559059 12.559059 0 0 0 17.769412 17.754353l8.854588-8.869647 44.378353 44.348235a12.559059 12.559059 0 0 0 17.739294-17.739294z m-17.106823-188.988235c0-10.390588-8.432941-18.823529-18.82353-18.82353h-37.647059c-10.390588 0-18.823529 8.432941-18.823529 18.82353v37.647059c0 10.390588 8.432941 18.823529 18.823529 18.823529h37.647059c10.390588 0 18.823529-8.432941 18.82353-18.823529v-37.647059z"  horiz-adv-x="1024" />

    
    <glyph glyph-name="chuangxinpingtai" unicode="&#58943;" d="M150.588235 896h722.82353c83.169882 0 150.588235-67.418353 150.588235-150.588235v-722.82353c0-83.169882-67.418353-150.588235-150.588235-150.588235H150.588235C67.418353-128 0-60.581647 0 22.588235V745.411765C0 828.581647 67.418353 896 150.588235 896z m361.411765-311.220706c13.854118 0 25.103059 11.248941 25.103059 25.103059v50.191059a25.103059 25.103059 0 0 1-50.206118 0V609.882353c0-13.854118 11.248941-25.103059 25.103059-25.103059z m-141.974588-58.804706a25.103059 25.103059 0 0 1 0 35.508706l-35.508706 35.493647a25.118118 25.118118 0 0 1-35.493647 0 25.118118 25.118118 0 0 1 0-35.493647l35.493647-35.508706a25.103059 25.103059 0 0 1 35.508706 0zM311.220706 384c0 13.854118-11.248941 25.103059-25.103059 25.103059h-50.191059a25.103059 25.103059 0 0 1 0-50.206118H286.117647c13.854118 0 25.103059 11.248941 25.103059 25.103059z m401.558588 0c0-13.854118 11.218824-25.103059 25.103059-25.103059h50.191059a25.088 25.088 0 1 1 0 50.206118H737.882353c-13.884235 0-25.103059-11.248941-25.103059-25.103059z m-58.789647 141.974588a25.072941 25.072941 0 0 1 35.478588 0l35.493647 35.508706a25.072941 25.072941 0 0 1 0 35.493647 25.118118 25.118118 0 0 1-35.493647 0l-35.478588-35.493647a25.103059 25.103059 0 0 1 0-35.508706z m21.142588-129.430588c0 90.112-73.035294 163.147294-163.132235 163.147294-90.096941 0-163.132235-73.035294-163.132235-163.147294C348.867765 306.447059 421.903059 233.411765 512 233.411765c90.096941 0 163.132235 73.035294 163.132235 163.132235z m-263.529411-213.323294c0-13.854118 11.248941-25.103059 25.103058-25.103059h150.588236a25.088 25.088 0 1 1 0 50.191059H436.705882c-13.854118 0-25.103059-11.233882-25.103058-25.088z m50.206117-75.294118c0-13.854118 11.233882-25.103059 25.088-25.103059h50.206118a25.088 25.088 0 1 1 0 50.191059h-50.206118c-13.854118 0-25.088-11.233882-25.088-25.088z"  horiz-adv-x="1024" />

    
    <glyph glyph-name="daiyanzhengrenwu" unicode="&#58944;" d="M150.588235 896h722.82353c83.169882 0 150.588235-67.418353 150.588235-150.588235v-722.82353c0-83.169882-67.418353-150.588235-150.588235-150.588235H150.588235C67.418353-128 0-60.581647 0 22.588235V745.411765C0 828.581647 67.418353 896 150.588235 896z m461.808941-210.823529H261.014588A50.221176 50.221176 0 0 1 210.823529 634.985412v-451.764706a50.221176 50.221176 0 0 1 50.191059-50.206118h257.505883a174.742588 174.742588 0 0 0-31.62353 100.397177c0 97.024 78.667294 175.691294 175.691294 175.691294v225.882353A50.221176 50.221176 0 0 1 612.397176 685.176471zM662.588235 384c-83.154824 0-150.588235-67.433412-150.588235-150.588235s67.433412-150.588235 150.588235-150.588236 150.588235 67.433412 150.588236 150.588236-67.433412 150.588235-150.588236 150.588235z m75.294118-175.691294h-75.294118a12.559059 12.559059 0 0 0-12.544 12.559059v100.382117a12.559059 12.559059 0 0 0 25.088 0V233.411765H737.882353a12.559059 12.559059 0 0 0 0-25.103059z m-163.132235 376.470588H298.661647a12.559059 12.559059 0 0 0 0 25.103059h276.088471a12.559059 12.559059 0 0 0 0-25.103059z m-87.853177-90.142118a10.24 10.24 0 0 0-10.24-10.24H296.357647a10.24 10.24 0 0 0-10.24 10.24v4.608a10.24 10.24 0 0 0 10.24 10.24h180.299294a10.24 10.24 0 0 0 10.24-10.24v-4.608zM436.705882 392.884706c0-4.924235-3.960471-8.884706-8.884706-8.884706h-132.818823a8.869647 8.869647 0 0 0-8.884706 8.884706v7.333647c0 4.909176 3.960471 8.884706 8.884706 8.884706h132.818823c4.924235 0 8.884706-3.975529 8.884706-8.884706v-7.333647z"  horiz-adv-x="1024" />

    
    <glyph glyph-name="ganxiexin" unicode="&#58945;" d="M150.588235 896h722.82353c83.169882 0 150.588235-67.418353 150.588235-150.588235v-722.82353c0-83.169882-67.418353-150.588235-150.588235-150.588235H150.588235C67.418353-128 0-60.581647 0 22.588235V745.411765C0 828.581647 67.418353 896 150.588235 896z m226.831059-211.365647L256 571.060706V120.169412A37.285647 37.285647 0 0 1 293.315765 82.823529H717.854118a37.285647 37.285647 0 0 1 37.315764 37.345883V647.288471a37.285647 37.285647 0 0 1-37.315764 37.345882H377.419294z m-37.135059-227.388235v30.569411h303.992471v-30.569411H340.284235z m0-85.263059v30.569412h303.992471v-30.569412H340.284235z m0-84.976941v30.569411h133.948236v-30.569411h-133.948236z m367.766589 26.48847a14.817882 14.817882 0 0 0 0-20.961882l-17.468236-17.453177-34.93647 34.936471 17.468235 17.453176a14.832941 14.832941 0 0 0 20.961882 0l13.974589-13.974588z m-154.699295-104.975059l95.533177 94.177883 35.132235-34.921412-95.518117-94.177882-35.147295 34.921411z m-28.370823-64.015058l21.293176 56.711529 34.710589-34.635294-56.003765-22.076235z m-141.522824 409.103058l-88.395294 1.536 88.395294 88.922353v-90.458353z"  horiz-adv-x="1024" />

    
    <glyph glyph-name="dianjian1" unicode="&#58946;" d="M150.588235 896h722.82353c83.169882 0 150.588235-67.418353 150.588235-150.588235v-722.82353c0-83.169882-67.418353-150.588235-150.588235-150.588235H150.588235C67.418353-128 0-60.581647 0 22.588235V745.411765C0 828.581647 67.418353 896 150.588235 896z m609.686589-256H263.725176A52.901647 52.901647 0 0 1 210.823529 587.068235V190.945882a52.901647 52.901647 0 0 1 52.901647-52.901647h496.549648A52.901647 52.901647 0 0 1 813.176471 190.945882V587.068235A52.901647 52.901647 0 0 1 760.274824 640zM700.235294 450.108235h-225.882353a12.559059 12.559059 0 0 0 0 25.088h225.882353a12.559059 12.559059 0 0 0 0-25.088z m0-150.588235h-225.882353a12.559059 12.559059 0 0 0 0 25.088h225.882353a12.559059 12.559059 0 0 0 0-25.088zM403.621647 482.213647l-53.232941-53.232941a12.559059 12.559059 0 0 0-17.739294 0l-17.769412 17.739294a12.559059 12.559059 0 0 0 17.769412 17.754353l8.854588-8.869647 44.378353 44.348235a12.559059 12.559059 0 0 0 17.739294-17.739294z m-17.106823-188.988235c0-10.390588-8.432941-18.823529-18.82353-18.82353h-37.647059c-10.390588 0-18.823529 8.432941-18.823529 18.82353v37.647059c0 10.390588 8.432941 18.823529 18.823529 18.823529h37.647059c10.390588 0 18.823529-8.432941 18.82353-18.823529v-37.647059z"  horiz-adv-x="1024" />

    
    <glyph glyph-name="bangzhuzhongxin1" unicode="&#58947;" d="M150.588235 896h722.82353c83.169882 0 150.588235-67.418353 150.588235-150.588235v-722.82353c0-83.169882-67.418353-150.588235-150.588235-150.588235H150.588235C67.418353-128 0-60.581647 0 22.588235V745.411765C0 828.581647 67.418353 896 150.588235 896z m368.128-309.443765c8.673882-1.129412 17.468235-1.686588 26.006589-3.493647 38.490353-8.116706 54.814118-57.705412 29.394823-87.883294-15.420235-18.311529-34.304-32.466824-53.308235-46.531765-48.700235-36.080941-74.029176-84.148706-73.758118-145.01647a46.682353 46.682353 0 0 1 5.451294-21.157647c9.005176-16.685176 24.124235-23.642353 42.797177-25.22353 33.400471-2.816 59.723294 25.645176 57.494588 52.464942-0.828235 9.878588 0.662588 20.464941 3.403294 30.057411 5.421176 18.989176 19.079529 32.557176 34.153412 44.333177 20.630588 16.082824 42.480941 30.674824 62.509176 47.450353 20.705882 17.347765 34.575059 39.725176 39.378824 66.846117 4.818824 27.075765 2.349176 53.835294-5.51153 80.00753-16.007529 53.368471-52.540235 85.564235-105.472 99.764706-29.967059 8.026353-60.611765 8.402824-91.301647 4.894117-47.841882-5.466353-90.051765-23.521882-124.807529-57.344-14.441412-14.034824-25.946353-30.358588-31.367529-50.115764-3.764706-13.793882-4.005647-27.678118 4.668235-39.981177 14.848-21.037176 46.426353-27.000471 69.451294-14.004706 10.992941 6.219294 17.829647 16.158118 25.374118 25.615059 10.194824 12.8 21.534118 24.184471 37.104941 30.569412 15.510588 6.339765 31.744 7.740235 48.338823 8.749176z m41.532236-443.105882v8.914823c-0.030118 22.768941-11.038118 38.701176-31.156706 48.278589-18.221176 8.688941-37.376 8.312471-56.048941 1.927529-17.061647-5.827765-30.418824-17.046588-35.072-35.041882-2.484706-9.637647-1.972706-20.148706-2.123295-30.268236-0.331294-22.256941 11.414588-37.225412 30.328471-46.998588 14.757647-7.649882 30.795294-8.809412 46.938353-6.144 17.92 2.966588 31.924706 12.257882 41.185882 28.175059 5.888 10.119529 6.144 21.232941 5.948236 31.156706z"  horiz-adv-x="1024" />

    
    <glyph glyph-name="jixiaoguanli" unicode="&#58948;" d="M150.588235 896h722.82353c83.169882 0 150.588235-67.418353 150.588235-150.588235v-722.82353c0-83.169882-67.418353-150.588235-150.588235-150.588235H150.588235C67.418353-128 0-60.581647 0 22.588235V745.411765C0 828.581647 67.418353 896 150.588235 896z m66.95153-738.740706h114.748235V345.750588h-114.748235v-188.491294z m303.22447 4.096h114.748236V460.483765h-114.748236v-299.128471z m-151.612235-4.096h114.748235V571.120941h-114.748235v-413.861647z m300.423529 1.972706h112.850824V685.176471h-112.850824v-525.944471zM180.705882 84.239059h601.720471v37.526588H180.705882v-37.541647z"  horiz-adv-x="1024" />

    
    <glyph glyph-name="chuangxinpingtai1" unicode="&#58949;" d="M150.588235 896h722.82353c83.169882 0 150.588235-67.418353 150.588235-150.588235v-722.82353c0-83.169882-67.418353-150.588235-150.588235-150.588235H150.588235C67.418353-128 0-60.581647 0 22.588235V745.411765C0 828.581647 67.418353 896 150.588235 896z m361.411765-311.220706c13.854118 0 25.103059 11.248941 25.103059 25.103059v50.191059a25.103059 25.103059 0 0 1-50.206118 0V609.882353c0-13.854118 11.248941-25.103059 25.103059-25.103059z m-141.974588-58.804706a25.103059 25.103059 0 0 1 0 35.508706l-35.508706 35.493647a25.118118 25.118118 0 0 1-35.493647 0 25.118118 25.118118 0 0 1 0-35.493647l35.493647-35.508706a25.103059 25.103059 0 0 1 35.508706 0zM311.220706 384c0 13.854118-11.248941 25.103059-25.103059 25.103059h-50.191059a25.103059 25.103059 0 0 1 0-50.206118H286.117647c13.854118 0 25.103059 11.248941 25.103059 25.103059z m401.558588 0c0-13.854118 11.218824-25.103059 25.103059-25.103059h50.191059a25.088 25.088 0 1 1 0 50.206118H737.882353c-13.884235 0-25.103059-11.248941-25.103059-25.103059z m-58.789647 141.974588a25.072941 25.072941 0 0 1 35.478588 0l35.493647 35.508706a25.072941 25.072941 0 0 1 0 35.493647 25.118118 25.118118 0 0 1-35.493647 0l-35.478588-35.493647a25.103059 25.103059 0 0 1 0-35.508706z m21.142588-129.430588c0 90.112-73.035294 163.147294-163.132235 163.147294-90.096941 0-163.132235-73.035294-163.132235-163.147294C348.867765 306.447059 421.903059 233.411765 512 233.411765c90.096941 0 163.132235 73.035294 163.132235 163.132235z m-263.529411-213.323294c0-13.854118 11.248941-25.103059 25.103058-25.103059h150.588236a25.088 25.088 0 1 1 0 50.191059H436.705882c-13.854118 0-25.103059-11.233882-25.103058-25.088z m50.206117-75.294118c0-13.854118 11.233882-25.103059 25.088-25.103059h50.206118a25.088 25.088 0 1 1 0 50.191059h-50.206118c-13.854118 0-25.088-11.233882-25.088-25.088z"  horiz-adv-x="1024" />

    
    <glyph glyph-name="daiyanzhengrenwu1" unicode="&#58950;" d="M150.588235 896h722.82353c83.169882 0 150.588235-67.418353 150.588235-150.588235v-722.82353c0-83.169882-67.418353-150.588235-150.588235-150.588235H150.588235C67.418353-128 0-60.581647 0 22.588235V745.411765C0 828.581647 67.418353 896 150.588235 896z m461.808941-210.823529H261.014588A50.221176 50.221176 0 0 1 210.823529 634.985412v-451.764706a50.221176 50.221176 0 0 1 50.191059-50.206118h257.505883a174.742588 174.742588 0 0 0-31.62353 100.397177c0 97.024 78.667294 175.691294 175.691294 175.691294v225.882353A50.221176 50.221176 0 0 1 612.397176 685.176471zM662.588235 384c-83.154824 0-150.588235-67.433412-150.588235-150.588235s67.433412-150.588235 150.588235-150.588236 150.588235 67.433412 150.588236 150.588236-67.433412 150.588235-150.588236 150.588235z m75.294118-175.691294h-75.294118a12.559059 12.559059 0 0 0-12.544 12.559059v100.382117a12.559059 12.559059 0 0 0 25.088 0V233.411765H737.882353a12.559059 12.559059 0 0 0 0-25.103059z m-163.132235 376.470588H298.661647a12.559059 12.559059 0 0 0 0 25.103059h276.088471a12.559059 12.559059 0 0 0 0-25.103059z m-87.853177-90.142118a10.24 10.24 0 0 0-10.24-10.24H296.357647a10.24 10.24 0 0 0-10.24 10.24v4.608a10.24 10.24 0 0 0 10.24 10.24h180.299294a10.24 10.24 0 0 0 10.24-10.24v-4.608zM436.705882 392.884706c0-4.924235-3.960471-8.884706-8.884706-8.884706h-132.818823a8.869647 8.869647 0 0 0-8.884706 8.884706v7.333647c0 4.909176 3.960471 8.884706 8.884706 8.884706h132.818823c4.924235 0 8.884706-3.975529 8.884706-8.884706v-7.333647z"  horiz-adv-x="1024" />

    
    <glyph glyph-name="kaoqinguanli" unicode="&#58951;" d="M150.588235 896h722.82353c83.169882 0 150.588235-67.418353 150.588235-150.588235v-722.82353c0-83.169882-67.418353-150.588235-150.588235-150.588235H150.588235C67.418353-128 0-60.581647 0 22.588235V745.411765C0 828.581647 67.418353 896 150.588235 896z m192.858353-258.981647v4.080941c-1.234824 0-1.716706 0-2.213647-0.240941-16.941176 0-34.032941 0.120471-50.974117-0.120471-5.285647 0-10.691765-0.602353-15.856942-1.807058-25.178353-5.647059-48.760471-25.494588-48.519529-58.804706 0.602353-83.712 0.256-167.529412 0.256-251.241412v-188.084706c0-17.92 7.122824-32.361412 21.368471-43.550118 13.251765-10.330353 28.611765-14.426353 45.447529-14.426353 146.311529 0 292.623059 0 438.949647 0.120471 6.505412 0 13.131294 0.602353 19.395765 2.048 24.952471 5.647059 47.796706 25.856 47.555764 57.374118-0.496941 75.399529-0.135529 150.919529-0.135529 226.334117V583.017412c0 13.462588-4.050824 25.615059-13.251765 35.84-13.763765 15.149176-31.457882 21.880471-51.847529 22.13647-16.459294 0.105412-33.054118 0-49.513412 0-0.858353 0-1.716706 0-2.951529-0.135529v-3.719529c0-12.047059-0.120471-24.064 0-36.080942 0-9.863529-4.171294-17.679059-12.272941-23.341176-10.571294-7.213176-21.985882-8.417882-33.912471-4.201412-12.047059 4.216471-20.886588 14.908235-20.269177 28.506353 0.496941 11.896471 0.120471 23.928471 0.120471 35.84 0 1.069176-0.120471 2.168471-0.120471 3.117177H409.660235v-41.246118c0-8.884706-3.915294-15.872-11.053176-21.037177-12.528941-9.140706-26.157176-9.863529-39.800471-2.770823-8.839529 4.562824-14.742588 12.016941-15.104 22.241882-0.376471 12.995765-0.256 25.871059-0.256 38.851765z m411.211294-98.755765v-3.975529c0-125.590588 0-251.316706 0.120471-376.892235 0-13.552941-8.779294-21.097412-18.055529-22.603295-2.800941-0.406588-5.722353-0.542118-8.538353-0.542117H294.851765c-7.439059 0-14.396235 1.505882-19.877647 7.664941a20.103529 20.103529 0 0 0-4.99953 13.146353V538.262588h484.698353z m-367.164235 95.36753c-0.120471 12.649412-0.120471 25.434353 0 38.219294 0 4.638118-1.701647 8.146824-5.089882 10.149647a22.919529 22.919529 0 0 1-9.261177 3.132235c-9.487059 0.632471-15.043765-5.632-15.043764-16.037647v-71.800471c0-1.249882 0-2.499765 0.240941-3.764705 1.008941-6.384941 6.204235-10.646588 13.552941-11.14353 10.059294-0.632471 15.600941 5.135059 15.600941 16.158118v35.087059z m242.401882 0.135529c0-12.498824 0.120471-24.982588 0.120471-37.586823-0.105412-5.752471 2.364235-9.366588 6.746353-11.866353 3.388235-1.987765 7.228235-2.364235 10.932706-1.626353 6.174118 1.129412 11.700706 5.632 11.595294 14.607058-0.240941 24.350118-0.120471 48.579765-0.120471 72.794353 0 1.249882 0 2.499765-0.225882 3.764706-1.024 5.857882-5.180235 9.728-11.941647 10.962824-10.014118 2.002824-17.106824-4.608-17.106824-15.721412v-35.328zM489.261176 259.373176a104.463059 104.463059 0 0 0-3.674352 4.156236c-22.738824 26.127059-45.613176 52.254118-68.472471 78.396235-4.668235 5.240471-10.450824 8.432941-17.814588 7.559529-12.905412-1.581176-21.278118-15.134118-18.688-29.545411 1.355294-7.318588 6.144-12.453647 10.812235-17.829647 27.286588-31.126588 54.573176-62.509176 81.859765-93.650824 9.456941-10.872471 22.497882-10.736941 31.834353 0l154.503529 176.926118c6.761412 7.830588 8.598588 16.715294 5.647059 26.503529-2.454588 8.176941-7.740235 13.914353-16.338824 15.75153-7.981176 1.701647-14.381176-1.716706-19.546353-7.695059-38.098824-43.715765-76.077176-87.311059-114.176-130.906353-8.613647-9.758118-17.091765-19.531294-25.946353-29.665883z"  horiz-adv-x="1024" />

    
    <glyph glyph-name="kehuguanli" unicode="&#58952;" d="M150.588235 896h722.82353c83.169882 0 150.588235-67.418353 150.588235-150.588235v-722.82353c0-83.169882-67.418353-150.588235-150.588235-150.588235H150.588235C67.418353-128 0-60.581647 0 22.588235V745.411765C0 828.581647 67.418353 896 150.588235 896z m662.588236-517.978353c-40.990118 13.101176-95.216941 13.914353-115.169883 40.417882-3.267765 4.201412-3.523765 15.36-3.44847 23.898353 0 3.087059 1.340235 6.113882 3.70447 8.267294 23.792941 20.931765 39.860706 57.765647 39.860706 93.696 0 68.562824-10.842353 125.44-81.408 125.44-44.890353 0-66.048-22.106353-75.294118-55.341176 19.395765-12.197647 31.608471-29.153882 39.30353-44.318118 17.377882-34.725647 19.787294-78.034824 19.787294-115.83247 0-24.756706-5.210353-50.145882-15.194353-73.487059a171.52 171.52 0 0 0-31.472941-49.724235c2.499765-1.325176 6.098824-3.162353 11.264-5.014589 12.001882-4.367059 27.181176-7.529412 43.173647-10.782117 40.056471-8.402824 85.639529-17.648941 111.992471-52.208941 7.228235-9.336471 13.296941-20.992 18.537411-34.936471H813.176471v149.925647z m-550.912-116.058353c25.675294 36.442353 72.583529 45.733647 113.92 54.091294 16.218353 3.162353 31.397647 6.324706 43.474823 10.541177 4.999529 1.746824 8.523294 3.312941 10.977882 4.743529-12.649412 13.778824-23.145412 30.479059-31.277176 49.197177a193.867294 193.867294 0 0 0-15.555765 72.372705c-0.391529 32.075294 1.626353 56.485647 5.797647 77.221648 6.113882 29.801412 17.287529 52.495059 34.273883 69.571764a98.243765 98.243765 0 0 0 18.672941 14.908236C433.076706 648.026353 412.355765 670.117647 368.338824 670.117647c-72.734118 0-82.959059-57.524706-82.266353-126.584471 0.391529-35.207529 16.414118-71.860706 39.951058-92.717176a11.143529 11.143529 0 0 0 3.749647-8.432941c0-8.523294-0.572235-19.621647-3.568941-23.552-19.486118-26.473412-74.149647-27.075765-115.395764-39.755294v-150.814118h34.454588c4.818824 13.357176 10.541176 24.395294 16.986353 33.701647z m498.793411-149.534118c-1.551059 28.807529-7.484235 96.813176-30.418823 127.171765-35.132235 45.824-141.176471 30.795294-172.197647 72.764235-3.312941 4.713412-3.915294 17.347765-3.689412 26.849883a13.176471 13.176471 0 0 0 4.216471 9.216c26.277647 23.491765 44.077176 64.692706 44.077176 105.035294 0 77.101176-11.911529 140.769882-90.142118 140.769882-80.685176 0-92.039529-64.361412-91.25647-141.884235 0.376471-39.604706 18.100706-80.549647 44.378353-103.920941a12.980706 12.980706 0 0 0 4.171294-9.517177c0-9.547294-0.557176-21.925647-4.035765-26.503529-30.629647-41.968941-139.941647-25.825882-173.071059-72.764235-21.805176-31.036235-27.904-98.454588-29.590588-127.232a12.694588 12.694588 0 0 1 12.694588-13.357177h472.124236c7.228235 0 13.086118 6.083765 12.739764 13.357177z"  horiz-adv-x="1024" />

    
    <glyph glyph-name="wodefuli" unicode="&#58953;" d="M150.588235 896h722.82353c83.169882 0 150.588235-67.418353 150.588235-150.588235v-722.82353c0-83.169882-67.418353-150.588235-150.588235-150.588235H150.588235C67.418353-128 0-60.581647 0 22.588235V745.411765C0 828.581647 67.418353 896 150.588235 896z m315.904-382.418824H242.326588c-17.392941 0-31.503059-14.275765-31.503059-31.86447v-83.365647c0-17.603765 14.110118-31.864471 31.503059-31.864471h224.165647c17.392941 0 31.503059 14.260706 31.503059 31.864471v83.365647c0 17.588706-14.110118 31.864471-31.503059 31.86447z m0.240941-167.619764H274.251294c-17.362824 0-31.472941-14.125176-31.472941-31.533177v-196.562823c0-17.423059 15.239529-31.533176 32.617412-31.533177h190.765176c17.377882 0 31.472941 14.110118 31.472941 31.533177l0.557177 196.562823a31.503059 31.503059 0 0 1-31.472941 31.533177z m-98.364235 338.898823c-17.995294 0.572235-52.058353-16.248471-62.644706-30.960941-38.204235-53.157647-9.848471-126.132706 110.125177-126.132706 51.440941 0 94.403765 44.905412 94.403764 63.066353 0 18.191059-58.352941 91.407059-141.884235 94.027294zM777.712941 512h-224.677647c-17.377882 0-31.472941-14.110118-31.472941-31.533176v-82.522353c0-17.408 14.095059-31.518118 31.472941-31.518118h224.677647c17.377882 0 31.472941 14.110118 31.472941 31.533176v82.522353a31.503059 31.503059 0 0 1-31.472941 31.518118z m-175.691294 15.766588c116.645647 0 144.218353 72.975059 107.068235 126.132706-10.285176 14.712471-43.399529 31.533176-60.897882 30.960941-81.197176-2.620235-137.938824-75.836235-137.938824-94.027294 0-18.160941 41.758118-63.066353 91.768471-63.066353z m144.715294-182.287059H553.923765a31.442824 31.442824 0 0 1-31.397647-31.472941v-196.21647c0-17.377882 14.622118-31.472941 31.969882-31.472942h191.141647a31.442824 31.442824 0 0 1 31.397647 31.472942l1.129412 196.21647c0 17.377882-14.049882 31.472941-31.397647 31.472941z"  horiz-adv-x="1024" />

    
    <glyph glyph-name="wentifankui" unicode="&#58954;" d="M150.588235 896h722.82353c83.169882 0 150.588235-67.418353 150.588235-150.588235v-722.82353c0-83.169882-67.418353-150.588235-150.588235-150.588235H150.588235C67.418353-128 0-60.581647 0 22.588235V745.411765C0 828.581647 67.418353 896 150.588235 896z m361.411765-210.823529c-166.324706 0-301.176471-134.851765-301.176471-301.176471s134.851765-301.176471 301.176471-301.176471 301.176471 134.851765 301.176471 301.176471-134.851765 301.176471-301.176471 301.176471z m175.691294-376.470589a50.221176 50.221176 0 0 0-50.206118-50.191058h-159.472941l-66.409411-50.206118v50.206118h-25.088A50.221176 50.221176 0 0 0 336.308706 308.705882V459.294118a50.221176 50.221176 0 0 0 50.206118 50.191058h250.970352A50.221176 50.221176 0 0 0 687.691294 459.294118v-150.588236zM624.941176 421.647059a12.559059 12.559059 0 0 1 0 25.103059h-225.882352a12.559059 12.559059 0 0 1 0-25.103059h225.882352z m-48.865882-50.191059a11.218824 11.218824 0 0 1 11.218824 11.218824v2.650352a11.218824 11.218824 0 0 1-11.218824 11.218824H397.748706a11.218824 11.218824 0 0 1-11.248941-11.218824v-2.650352c0-6.204235 5.029647-11.218824 11.248941-11.218824h178.326588z m-97.114353-50.206118a7.936 7.936 0 0 1 7.936 7.936v9.231059a7.936 7.936 0 0 1-7.936 7.936h-84.510117a7.951059 7.951059 0 0 1-7.951059-7.936v-9.231059c0-4.367059 3.568941-7.936 7.951059-7.936h84.510117z"  horiz-adv-x="1024" />

    
    <glyph glyph-name="peixunguanli" unicode="&#58955;" d="M150.588235 896h722.82353c83.169882 0 150.588235-67.418353 150.588235-150.588235v-722.82353c0-83.169882-67.418353-150.588235-150.588235-150.588235H150.588235C67.418353-128 0-60.581647 0 22.588235V745.411765C0 828.581647 67.418353 896 150.588235 896z m213.488941-382.930824c11.655529-42.767059 54.362353-42.767059 69.903059 0 7.770353 0 11.655529 7.785412 11.65553 15.570824 0 7.770353 0 15.555765-3.885177 15.555765 0 23.341176-11.640471 38.881882-38.836706 38.881882-31.066353-3.885176-42.721882-15.555765-42.721882-42.767059-7.770353 0-7.770353-7.785412-3.885176-15.570823 0-3.885176 3.885176-11.670588 7.770352-11.670589z m97.776942-265.607529V263.529412c15.932235 0 31.879529 12.047059 31.879529 32.12047l123.512471 124.491294c3.990588 4.020706 3.990588 8.026353 0 12.047059-3.975529 4.020706-7.981176 4.020706-11.956706 0l-111.555765-112.444235v108.423529c0 24.094118-15.947294 44.182588-39.845647 48.188236h-15.947294l-35.855059-72.282353-35.870118 72.282353h-19.922823c-23.898353-8.026353-39.845647-28.099765-39.845647-48.188236V299.670588c0-16.067765 11.956706-32.120471 31.879529-32.12047V251.482353l123.52753-4.020706zM210.823529 355.885176c0-48.188235 39.845647-88.335059 87.657412-88.335058-3.975529 8.026353-7.981176 16.052706-7.981176 28.099764v12.047059c-27.873882 4.020706-43.821176 20.088471-43.821177 48.188235v240.941177c0 28.114824 23.913412 48.188235 47.826824 48.188235h422.354823c27.888941 0 47.811765-24.094118 47.811765-48.188235v-240.941177c0-28.099765-23.898353-48.188235-47.811765-48.188235H529.588706l-15.932235-16.052706c0-8.041412-3.990588-12.047059-7.981177-16.067764h211.184941c47.811765 0 87.657412 40.161882 87.657412 88.350117V596.826353c0 48.188235-39.845647 88.350118-87.657412 88.350118H298.480941C250.669176 685.176471 210.823529 645.014588 210.823529 596.826353v-240.941177z m123.52753-140.544h-67.749647C234.736941 215.341176 210.823529 187.226353 210.823529 159.126588V82.823529h183.296v76.303059c0 32.120471-27.904 56.214588-59.783529 56.214588z m207.194353 0h-63.759059c-31.879529 0-55.777882-28.114824-55.777882-56.214588V82.823529h183.280941v76.303059C601.313882 191.247059 573.44 215.341176 541.545412 215.341176z m211.184941 0h-67.749647c-31.864471 0-55.777882-28.114824-55.777882-56.214588V82.823529h183.296v76.303059c-3.990588 32.120471-31.879529 56.214588-59.78353 56.214588z"  horiz-adv-x="1024" />

    
    <glyph glyph-name="wodekehu" unicode="&#58956;" d="M150.588235 896h722.82353c83.169882 0 150.588235-67.418353 150.588235-150.588235v-722.82353c0-83.169882-67.418353-150.588235-150.588235-150.588235H150.588235C67.418353-128 0-60.581647 0 22.588235V745.411765C0 828.581647 67.418353 896 150.588235 896z m210.56753-361.321412c0-83.034353 67.312941-150.347294 150.332235-150.347294 83.034353 0 150.347294 67.312941 150.347294 150.347294 0 83.019294-67.312941 150.332235-150.347294 150.332236-83.019294 0-150.332235-67.312941-150.332235-150.332236z m198.053647-154.096941l-47.721412-47.736471-47.706353 47.736471C320.421647 357.692235 210.823529 233.456941 210.823529 83.666824h601.344c0 149.790118-109.598118 274.025412-252.958117 296.914823z m-47.721412-253.967059l-51.471059 51.486118 51.471059 154.563765 51.501176-154.639059-51.501176-51.410824z"  horiz-adv-x="1024" />

    
    <glyph glyph-name="wodeshenpi" unicode="&#58957;" d="M150.588235 896h722.82353c83.169882 0 150.588235-67.418353 150.588235-150.588235v-722.82353c0-83.169882-67.418353-150.588235-150.588235-150.588235H150.588235C67.418353-128 0-60.581647 0 22.588235V745.411765C0 828.581647 67.418353 896 150.588235 896z m90.352941-813.176471h536.847059v60.235295H240.941176v-60.235295z m497.167059 220.867765h-130.243764c-11.745882 14.004706-20.088471 29.861647-21.458824 47.661177-5.586824 72.779294 72.086588 107.625412 72.086588 196.879058 0 75.806118-57.163294 136.944941-149.127529 136.944942-91.964235 0-149.127529-61.138824-149.12753-136.944942 0-89.253647 77.673412-124.099765 72.086589-196.879058-1.370353-17.799529-9.712941-33.671529-21.458824-47.661177h-130.258823c-21.895529 0-39.664941-17.935059-39.664942-40.05647v-80.414118h536.847059v80.414118c0 22.121412-17.769412 40.056471-39.68 40.05647z"  horiz-adv-x="1024" />

    
    <glyph glyph-name="renshifuwu" unicode="&#58958;" d="M150.588235 896h722.82353c83.169882 0 150.588235-67.418353 150.588235-150.588235v-722.82353c0-83.169882-67.418353-150.588235-150.588235-150.588235H150.588235C67.418353-128 0-60.581647 0 22.588235V745.411765C0 828.581647 67.418353 896 150.588235 896z m507.708236-638.750118c0.376471 13.824-5.993412 22.181647-17.046589 28.325647a114.296471 114.296471 0 0 1-13.522823 6.083765c-15.555765 6.144-31.156706 12.152471-46.712471 18.371765-17.242353 6.791529-34.048 15.073882-51.802353 20.208941-12.724706 3.689412-21.157647 9.953882-26.127059 21.729882-1.129412 2.529882-2.740706 4.818824-3.614117 7.408942-1.475765 4.427294-4.065882 6.640941-8.96 7.168-6.806588 0.722824-7.529412 2.544941-4.894118 8.96a12.559059 12.559059 0 0 0 2.394353 4.291764c7.68 7.68 10.134588 17.016471 10.059294 27.587765-0.075294 9.487059 2.951529 17.633882 12.950588 21.714823 2.650353 1.099294 5.345882 4.367059 6.294589 7.243295 6.219294 17.588706 10.194824 35.433412-0.150589 53.142588-0.948706 1.671529-1.852235 3.84-1.776941 5.662117 0.451765 12.679529 0.828235 25.328941 1.776941 37.918118 1.264941 16.564706 0.376471 32.632471-8.05647 47.585882-2.966588 5.180235-7.122824 7.830588-13.116235 8.719059-4.065882 0.602353-8.673882 2.228706-11.776 4.894118-15.314824 13.176471-33.234824 16.594824-52.449883 15.405176-17.468235-1.054118-33.611294-7.318588-49.754353-13.583058-16.64-6.339765-27.497412-17.965176-32.722823-34.831059-5.104941-16.579765-4.261647-33.445647-1.761883-50.266353 1.581176-10.360471 4.879059-20.555294-2.228705-30.192941-0.512-0.647529-0.587294-1.776941-0.421648-2.665412 1.746824-13.251765 3.177412-26.548706 5.662118-39.649882 1.249882-6.656 5.797647-11.264 13.206588-12.453648 1.596235-0.225882 3.915294-2.816 4.141177-4.517647 1.174588-8.96 1.249882-17.965176 2.725647-26.849882 0.737882-4.442353 3.192471-8.764235 5.330823-12.905412 1.551059-3.011765 4.216471-5.541647 5.842824-8.583529 1.852235-3.237647 1.701647-6.068706-3.192471-6.430118-3.629176-0.301176-5.466353-2.650353-7.092706-5.918117-3.192471-6.595765-6.806588-13.025882-10.526117-19.395765-2.800941-4.803765-6.942118-7.604706-12.574118-8.944941-6.565647-1.505882-13.101176-3.553882-19.395765-6.068706a10243.011765 10243.011765 0 0 1-89.46447-36.111059c-5.406118-2.213647-10.721882-4.969412-15.570824-8.207059-7.830588-5.345882-11.971765-12.574118-11.89647-22.738823 0.180706-20.058353-0.752941-65.204706-1.249883-85.263059h196.788706c1.912471 13.778824 3.764706 52.705882 5.752471 66.454588 2.680471 18.010353 5.496471 35.930353 8.026353 53.970824 0.195765 1.852235-0.602353 3.915294-1.430588 5.692235-2.590118 5.707294-5.089882 11.429647-8.131765 16.896-2.304 4.141176-1.355294 6.339765 2.966588 7.755294 1.927529 0.572235 3.915294 1.400471 5.391059 2.665412 15.465412 12.288 28.340706 4.367059 41.592471-5.632-3.267765-6.640941-6.957176-13.402353-9.923765-20.495059-1.249882-3.192471-2.002824-7.183059-1.249883-10.450824 6.731294-29.891765 13.824-84.796235 20.886589-114.642823 0.150588-0.662588 0.150588-1.400471 0.195764-2.138353h187.934118c-0.677647 19.350588-1.852235 63.759059-1.325176 83.079529zM808.96 228.442353c-6.354824 19.832471-21.308235 31.819294-39.152941 40.568471-12.348235 6.038588-25.524706 10.435765-37.948235 16.353882a201.246118 201.246118 0 0 0-29.033412 16.64 21.368471 21.368471 0 0 0-7.981177 13.17647c-1.490824 9.758118-1.039059 19.832471-1.114353 29.771295 0 1.596235 0.722824 3.689412 1.837177 4.939294 9.261176 9.908706 13.477647 22.136471 16.670117 34.93647a9.005176 9.005176 0 0 0 3.855059 5.165177c10.435765 5.933176 15.314824 26.202353 7.830589 35.599059-2.424471 3.132235-2.424471 5.616941-1.475765 8.96 5.345882 17.995294 7.755294 36.186353 6.294588 54.994823-1.731765 21.534118-13.778824 36.261647-34.409412 41.155765-1.807059 0.451765-3.418353 1.927529-5.074823 2.861176-4.939294 3.041882-9.532235 7.845647-14.817883 8.809412-10.390588 1.927529-21.187765 3.102118-31.623529 2.288941-38.791529-2.966588-61.289412-23.747765-62.780235-64.813176-0.527059-15.781647 2.243765-31.096471 5.49647-46.411294a10.496 10.496 0 0 0-1.581176-7.273412c-7.168-9.908706-2.936471-30.192941 7.634823-36.261647 1.626353-0.963765 3.403294-2.891294 3.84-4.577883 3.102118-13.251765 7.634824-25.660235 17.272471-35.84a6.4 6.4 0 0 0 1.520941-4.442352c-0.150588-11.896471-0.496941-23.732706-0.798118-36.758589 2.740706-1.054118 6.806588-2.228706 10.586353-3.945411 10.345412-4.592941 21.202824-8.402824 30.765177-14.426353 10.601412-6.580706 16.368941-16.790588 15.99247-30.192942-0.376471-14.351059 0.602353-28.717176 0.662589-43.068235 0-4.743529 1.325176-31.322353 6.294588-31.322353 42.917647 0.225882 85.865412 0.150588 128.707765 0.075294 2.228706 0 4.367059-0.225882 6.595764-0.37647v1.099294c-1.249882 5.903059-2.319059 36.848941-4.065882 42.315294z"  horiz-adv-x="1024" />

    
    <glyph glyph-name="wodemubiao" unicode="&#58959;" d="M578.620235 622.095059c-64.632471 26.774588-151.416471 10.164706-151.41647 10.164706-103.408941-16.624941-163.418353-106.179765-163.418353-106.179765-75.715765-107.113412-48.022588-216.048941-48.022588-216.048941 27.708235-132.035765 135.725176-191.126588 135.725176-191.126588 140.348235-76.619294 258.529882-7.378824 258.529882-7.378824 119.100235 60.009412 146.793412 175.420235 146.793412 175.420235 24.922353 84.931765-6.475294 164.336941-6.475294 164.336942l-36.924235-36.924236c23.085176-147.727059-56.771765-213.278118-56.771765-213.278117-79.856941-89.554824-199.890824-67.403294-199.890824-67.403295-89.569882 14.757647-132.035765 65.551059-132.035764 65.551059-60.943059 51.712-67.403294 145.874824-67.403294 145.874824-5.391059 69.586824 30.479059 130.996706 30.479058 130.996706 29.997176 55.341176 84.992 87.823059 84.992 87.823059 78.516706 44.318118 169.833412 23.085176 169.833412 23.085176l35.990588 35.087059z m-74.992941-211.802353l-0.015059-0.030118a24.726588 24.726588 0 0 1 35.749647-34.063059l0.045177-0.030117 99.764706 98.891294 63.939764-4.261647 106.571295 109.131294-92.084706 9.381647-9.366589 95.472941-110.832941-106.556235 5.104941-66.499765-96.63247-99.147294a24.892235 24.892235 0 0 1-2.243765-2.288941zM150.588235 896h722.82353c83.169882 0 150.588235-67.418353 150.588235-150.588235v-722.82353c0-83.169882-67.418353-150.588235-150.588235-150.588235H150.588235C67.418353-128 0-60.581647 0 22.588235V745.411765C0 828.581647 67.418353 896 150.588235 896z m362.465883-420.713412c-89.554824 8.312471-120.937412-50.778353-120.937412-50.778353-51.696941-87.702588 16.609882-147.727059 16.609882-147.727059 91.407059-61.846588 155.105882-5.526588 155.105883-5.526588 60.943059 43.384471 36.939294 122.970353 36.939294 122.970353L556.453647 347.858824c-4.608-16.609882-16.609882-31.382588-16.609882-31.382589-38.791529-46.170353-90.488471-12.001882-90.488471-12.001882-36.924235 22.151529-29.545412 71.68-29.545412 71.68 11.083294 47.661176 51.696941 52.043294 51.696942 52.043294l41.562352 47.073882z"  horiz-adv-x="1024" />

    
    <glyph glyph-name="wodejixiao" unicode="&#58960;" d="M150.588235 896h722.82353c83.169882 0 150.588235-67.418353 150.588235-150.588235v-722.82353c0-83.169882-67.418353-150.588235-150.588235-150.588235H150.588235C67.418353-128 0-60.581647 0 22.588235V745.411765C0 828.581647 67.418353 896 150.588235 896z m97.069177-738.740706h114.748235V345.750588h-114.748235v-188.491294z m303.22447 4.096h114.748236V460.483765h-114.748236v-299.128471z m-151.612235-4.096h114.748235V571.120941h-114.748235v-413.861647z m300.423529 1.972706h112.850824V685.176471h-112.850824v-525.944471zM210.823529 84.239059h601.720471v37.526588H210.823529v-37.541647z"  horiz-adv-x="1024" />

    
    <glyph glyph-name="wodedaiban" unicode="&#58961;" d="M150.588235 896h722.82353c83.169882 0 150.588235-67.418353 150.588235-150.588235v-722.82353c0-83.169882-67.418353-150.588235-150.588235-150.588235H150.588235C67.418353-128 0-60.581647 0 22.588235V745.411765C0 828.581647 67.418353 896 150.588235 896z m453.466353-328.131765h187.843765c14.049882 0 21.263059 6.851765 21.278118 20.133647v15.781647c0 13.417412-7.228235 20.148706-21.624471 20.148706h-374.964706c-13.522824 0-20.901647-6.987294-20.901647-19.772235 0-5.150118 0.331294-10.315294-0.060235-15.420235-1.008941-12.709647 8.026353-21.112471 22.437647-21.022118 61.982118 0.361412 123.994353 0.150588 185.97647 0.150588z m0.602353-160.783059h-187.482353c-14.546824 0-21.624471-6.716235-21.62447-20.48v-15.073882c0-13.793882 7.077647-20.495059 21.639529-20.495059h225.882353c49.197176 0 98.394353 0.240941 147.606588-0.150588 13.989647-0.120471 23.461647 7.936 22.422588 20.992-0.391529 4.758588-0.060235 9.577412-0.060235 14.366118-0.015059 14.260706-6.942118 20.841412-22.016 20.841411H604.672zM599.988706 134.023529h184.666353c13.251765 0 20.48 7.017412 20.510117 19.84753v16.158117c-0.015059 13.462588-7.077647 20.208941-21.217882 20.208942H415.683765c-12.754824 0-20.118588-7.137882-20.133647-19.486118v-16.504471c0-13.477647 7.077647-20.224 21.217882-20.224h183.205647zM347.331765 571.316706c0 16.429176 0.060235 32.873412 0 49.332706-0.060235 11.489882-7.890824 19.305412-19.425883 19.32047a43374.682353 43374.682353 0 0 1-97.520941 0c-11.745882 0-19.516235-7.830588-19.531294-19.591529-0.045176-32.391529-0.045176-64.783059 0-97.174588 0-11.971765 7.770353-19.696941 19.802353-19.712 32.256-0.030118 64.512-0.030118 96.783059 0 12.197647 0.015059 19.862588 7.710118 19.877647 19.983059 0.045176 15.932235 0.015059 31.879529 0.015059 47.841882z m0.015059-385.460706c0 16.067765 0.030118 32.150588 0 48.203294-0.030118 12.8-7.529412 20.404706-20.224 20.419765h-96.075295c-12.694588-0.015059-20.224-7.619765-20.224-20.419765v-95.683765c0-12.8 7.529412-20.389647 20.224-20.404705h96.075295c12.679529 0 20.208941 7.604706 20.224 20.404705v47.480471z m16.067764 262.731294c-0.692706 4.758588-4.141176 7.770353-8.086588 6.324706a21.714824 21.714824 0 0 1-7.228235-4.608 22817.972706 22817.972706 0 0 1-83.907765-79.525647c-1.957647-1.852235-3.207529-2.108235-5.391059-0.301177-10.616471 8.884706-21.338353 17.618824-32.075294 26.352942a25.253647 25.253647 0 0 1-4.126118 2.921411c-3.418353 1.776941-6.595765 0.948706-9.33647-1.536-2.680471-2.424471-2.981647-5.571765-1.716706-8.82447 0.752941-1.807059 1.701647-3.523765 2.876235-5.089883a14791.529412 14791.529412 0 0 1 36.638118-50.883764c1.129412-1.596235 2.424471-3.056941 3.870118-4.352 3.087059-2.680471 6.475294-3.056941 9.637647-0.873412 1.852235 1.28 3.463529 3.026824 4.939294 4.773647 6.671059 7.936 13.251765 15.947294 19.877647 23.928471 23.371294 28.16 46.742588 56.32 70.038588 84.555294 1.686588 2.078118 2.680471 4.758588 3.990588 7.137882z"  horiz-adv-x="1024" />

    
    <glyph glyph-name="wodewangpan" unicode="&#58962;" d="M150.588235 896h722.82353c83.169882 0 150.588235-67.418353 150.588235-150.588235v-722.82353c0-83.169882-67.418353-150.588235-150.588235-150.588235H150.588235C67.418353-128 0-60.581647 0 22.588235V745.411765C0 828.581647 67.418353 896 150.588235 896z m563.772236-215.657412h-35.990589v-216.124235a36.080941 36.080941 0 0 0-35.945411-35.990588H354.710588a36.096 36.096 0 0 0-35.96047 35.990588V680.357647h-35.960471c-39.559529 0-71.966118-32.451765-71.966118-72.026353v-432.233412c0-39.589647 32.406588-72.026353 71.966118-72.026353h431.570824c39.559529 0 71.951059 32.436706 71.951058 72.026353V608.316235c0 39.574588-32.391529 72.026353-71.951058 72.026353zM372.705882 464.233412h251.738353c9.923765 0 17.980235 8.101647 17.980236 17.995294V680.357647H354.725647v-198.113882c0-9.893647 8.086588-17.995294 17.980235-17.995294z m161.837177 126.042353a18.070588 18.070588 0 0 0 17.965176 18.04047 18.070588 18.070588 0 0 0 17.995294-18.04047v-72.041412a18.070588 18.070588 0 0 0-17.995294-17.995294 18.055529 18.055529 0 0 0-17.965176 17.995294v72.041412z"  horiz-adv-x="1024" />

    
    <glyph glyph-name="xinshouzhinan" unicode="&#58963;" d="M150.588235 896h722.82353c83.169882 0 150.588235-67.418353 150.588235-150.588235v-722.82353c0-83.169882-67.418353-150.588235-150.588235-150.588235H150.588235C67.418353-128 0-60.581647 0 22.588235V745.411765C0 828.581647 67.418353 896 150.588235 896z m155.602824-712.779294V233.411765a50.221176 50.221176 0 0 0 50.206117 50.191059h401.558589V634.985412A50.221176 50.221176 0 0 1 707.764706 685.176471H306.191059A50.221176 50.221176 0 0 1 256 634.985412v-501.970824A50.221176 50.221176 0 0 1 306.191059 82.823529H707.764706a50.221176 50.221176 0 0 1 50.191059 50.191059H356.397176a50.221176 50.221176 0 0 0-50.206117 50.206118z m386.514823 0A25.088 25.088 0 1 1 692.705882 233.411765H341.338353a25.088 25.088 0 1 1 0-50.191059H692.705882z"  horiz-adv-x="1024" />

    
    <glyph glyph-name="xiaobaiban" unicode="&#58964;" d="M150.588235 896h722.82353c83.169882 0 150.588235-67.418353 150.588235-150.588235v-722.82353c0-83.169882-67.418353-150.588235-150.588235-150.588235H150.588235C67.418353-128 0-60.581647 0 22.588235V745.411765C0 828.581647 67.418353 896 150.588235 896z m650.360471-741.345882H231.062588a5.150118 5.150118 0 0 1-5.180235-5.12v-10.270118c0-2.831059 2.319059-5.12 5.180235-5.12h243.365647L410.684235 82.823529h32.13553l63.759059 51.320471h19.184941L589.492706 82.823529h32.150588l-63.698823 51.320471h243.004235c2.861176 0 5.180235 2.288941 5.180235 5.12v10.270118a5.150118 5.150118 0 0 1-5.180235 5.12z m-243.501177 500.675764h-31.081411V685.176471h-20.720942v-29.846589h-31.081411v-19.877647h82.883764v19.877647z m227.960471-53.052235h-538.804706c-11.444706 0-20.720941-9.276235-20.720941-20.720941v-373.007059c0-11.444706 9.276235-20.736 20.720941-20.736h538.804706c11.444706 0 20.720941 9.291294 20.720941 20.736v373.007059c0 11.444706-9.276235 20.720941-20.720941 20.720941z"  horiz-adv-x="1024" />

    
    <glyph glyph-name="yuangongfazhan" unicode="&#58965;" d="M150.588235 896h722.82353c83.169882 0 150.588235-67.418353 150.588235-150.588235v-722.82353c0-83.169882-67.418353-150.588235-150.588235-150.588235H150.588235C67.418353-128 0-60.581647 0 22.588235V745.411765C0 828.581647 67.418353 896 150.588235 896z m166.339765-786.627765c7.981176 0 14.516706 6.595765 14.516706 14.652236v94.58447a14.622118 14.622118 0 0 1-14.516706 14.652235h-91.587765a14.622118 14.622118 0 0 1-14.516706-14.652235v-94.569412c0-8.071529 6.535529-14.667294 14.516706-14.667294h91.587765z m160.828235 0a14.607059 14.607059 0 0 1 14.501647 14.592v184.32a14.622118 14.622118 0 0 1-14.516706 14.652236h-91.587764a14.622118 14.622118 0 0 1-14.501647-14.652236v-184.259764c0-8.056471 6.520471-14.652235 14.501647-14.652236h91.587764z m320.180706 0c7.981176 0 14.516706 6.595765 14.516706 14.652236V459.264a14.622118 14.622118 0 0 1-14.516706 14.652235h-91.587765a14.622118 14.622118 0 0 1-14.516705-14.652235v-335.239529c0-8.056471 6.535529-14.652235 14.516705-14.652236h91.587765z m-159.367529 0.752941a14.607059 14.607059 0 0 1 14.516706 14.561883V341.76a14.622118 14.622118 0 0 1-14.516706 14.652235h-91.587765a14.622118 14.622118 0 0 1-14.516706-14.652235v-216.997647c0-8.056471 6.535529-14.652235 14.516706-14.652235h91.587765zM224.225882 323.915294c5.632-5.722353 12.649412-13.568 18.31153-18.55247 5.647059-4.984471 14.034824 3.599059 14.034823 3.599058s135.107765 139.625412 142.848 147.471059c7.755294 7.830588 17.588706 0 17.588706 0s94.629647-80.850824 102.008471-88.32c7.378824-7.484235 11.956706-3.599059 16.218353 0.722824 4.216471 4.261647 202.646588 188.747294 202.646588 188.747294s9.848471 9.246118 18.974118 0c9.110588-9.231059 35.177412-39.213176 35.177411-39.213177s12.664471-17.076706 12.664471 6.384942v130.394352s2.831059 14.953412-8.387765 14.953412H661.232941c-9.125647 0-10.932706-3.222588-6.309647-7.830588 4.562824-4.638118 32.376471-36.367059 32.376471-36.367059s5.632-7.845647 0-12.092235c-5.722353-4.246588-154.864941-155.256471-154.864941-155.256471s-9.848471-12.092235-19.696942-3.584c-9.848471 8.583529-95.713882 84.073412-95.713882 84.073412s-9.833412 7.830588-17.588706 0c-7.740235-7.845647-186.428235-192.346353-186.428235-192.346353s-4.924235-6.369882 0-11.354353c4.924235-5.059765 11.233882-11.444706 11.233882-11.444706z"  horiz-adv-x="1024" />

    
    <glyph glyph-name="hangzhengfuwu" unicode="&#58966;" d="M150.588235 896h722.82353c83.169882 0 150.588235-67.418353 150.588235-150.588235v-722.82353c0-83.169882-67.418353-150.588235-150.588235-150.588235H150.588235C67.418353-128 0-60.581647 0 22.588235V745.411765C0 828.581647 67.418353 896 150.588235 896z m605.364706-373.458824h-481.882353A48.203294 48.203294 0 0 1 225.882353 474.352941v-36.141176a12.047059 12.047059 0 0 1 12.047059-12.047059h96.37647a12.047059 12.047059 0 0 1 12.047059 12.047059v24.094117a12.047059 12.047059 0 0 0 12.047059 12.047059h72.282353a12.047059 12.047059 0 0 0 12.047059-12.047059v-24.094117a12.047059 12.047059 0 0 1 12.047059-12.047059h120.470588a12.047059 12.047059 0 0 1 12.047059 12.047059v24.094117a12.047059 12.047059 0 0 0 12.047058 12.047059h72.282353a12.047059 12.047059 0 0 0 12.047059-12.047059v-24.094117a12.047059 12.047059 0 0 1 12.047059-12.047059h96.376471a12.047059 12.047059 0 0 1 12.047058 12.047059V474.352941c0 26.593882-21.594353 48.188235-48.188235 48.188235z m-72.282353-156.611764v-24.094118a12.047059 12.047059 0 0 0-12.047059-12.047059h-72.282353a12.047059 12.047059 0 0 0-12.047058 12.047059v24.094118a12.047059 12.047059 0 0 1-12.047059 12.047059h-120.470588a12.047059 12.047059 0 0 1-12.047059-12.047059v-24.094118a12.047059 12.047059 0 0 0-12.047059-12.047059h-72.282353a12.047059 12.047059 0 0 0-12.047059 12.047059v24.094118a12.047059 12.047059 0 0 1-12.047059 12.047059h-96.37647a12.047059 12.047059 0 0 1-12.047059-12.047059v-228.894118c0-26.593882 21.594353-48.188235 48.188235-48.188235h481.882353c26.593882 0 48.188235 21.594353 48.188235 48.188235V365.929412a12.047059 12.047059 0 0 1-12.047058 12.047059h-96.376471a12.047059 12.047059 0 0 1-12.047059-12.047059z m-289.129412-12.047059a24.094118 24.094118 0 0 1 24.094118 24.094118v48.188235a24.094118 24.094118 0 1 1-48.188235 0v-48.188235a24.094118 24.094118 0 0 1 24.094117-24.094118z m240.941177 0a24.094118 24.094118 0 0 1 24.094118 24.094118v48.188235a24.094118 24.094118 0 1 1-48.188236 0v-48.188235a24.094118 24.094118 0 0 1 24.094118-24.094118zM347.030588 546.56l335.962353 0.075294c-7.755294 67.538824-80.007529 120.470588-167.981176 120.470588-88.003765 0-160.286118-52.961882-167.981177-120.545882z"  horiz-adv-x="1024" />

    
    <glyph glyph-name="yunkanban" unicode="&#58967;" d="M242.191059 685.176471H210.823529v-602.352942h602.352942V685.176471H242.191059zM150.588235 896h722.82353c83.169882 0 150.588235-67.418353 150.588235-150.588235v-722.82353c0-83.169882-67.418353-150.588235-150.588235-150.588235H150.588235C67.418353-128 0-60.581647 0 22.588235V745.411765C0 828.581647 67.418353 896 150.588235 896z m336.323765-681.411765c0-12.559059-6.279529-18.823529-18.823529-18.823529H292.382118c-12.559059 0-18.823529 6.264471-18.82353 18.823529V603.602824c0 12.559059 6.264471 18.823529 18.82353 18.823529h175.676235c12.559059 0 18.823529-6.264471 18.823529-18.823529V214.588235z m263.529412 150.588236c0-12.544-6.279529-18.823529-18.82353-18.82353H555.911529c-12.559059 0-18.823529 6.279529-18.823529 18.82353V603.602824c0 12.559059 6.264471 18.823529 18.823529 18.823529h175.676236c12.559059 0 18.823529-6.264471 18.823529-18.823529V365.176471z"  horiz-adv-x="1024" />

    
    <glyph glyph-name="yuangonggaiyao" unicode="&#58968;" d="M150.588235 896h722.82353c83.169882 0 150.588235-67.418353 150.588235-150.588235v-722.82353c0-83.169882-67.418353-150.588235-150.588235-150.588235H150.588235C67.418353-128 0-60.581647 0 22.588235V745.411765C0 828.581647 67.418353 896 150.588235 896z m593.182118-286.117647H280.169412A69.451294 69.451294 0 0 1 210.823529 540.355765v-312.771765A69.391059 69.391059 0 0 1 280.169412 158.117647h463.661176A69.421176 69.421176 0 0 1 813.176471 227.584v312.771765C813.116235 578.755765 782.064941 609.882353 743.770353 609.882353zM282.172235 259.041882a13.974588 13.974588 0 0 0-10.857411 16.414118 123.964235 123.964235 0 0 0 86.663529 96.301176 73.351529 73.351529 0 0 0-38.068706 64.406589c0 40.463059 32.150588 73.336471 71.634824 73.33647 39.469176 0 71.634824-32.933647 71.634823-73.33647a73.351529 73.351529 0 0 0-38.098823-64.406589 123.798588 123.798588 0 0 0 86.678588-96.677647 13.974588 13.974588 0 0 0-10.902588-16.338823 12.769882 12.769882 0 0 0-2.56-0.225882l-216.124236 0.527058zM597.534118 469.338353h99.96047c7.951059 0 15.269647-11.595294 15.269647-20.088471 0-8.493176-7.318588-20.073412-15.269647-20.073411h-99.96047c-7.951059 0-15.269647 11.580235-15.269647 20.073411 0 8.508235 7.318588 20.088471 15.269647 20.088471z m0-80.323765h99.96047c7.951059 0 15.269647-11.565176 15.269647-20.073412s-7.318588-20.073412-15.269647-20.073411h-99.96047c-7.951059 0-15.269647 11.565176-15.269647 20.073411s7.318588 20.073412 15.269647 20.073412zM738.334118 278.588235h-141.477647c-7.589647 0-14.607059 11.580235-14.607059 20.073412 0 8.508235 7.017412 20.088471 14.607059 20.088471h141.477647c7.589647 0 14.592-11.595294 14.592-20.088471 0-8.493176-7.002353-20.073412-14.592-20.073412z"  horiz-adv-x="1024" />

    
    <glyph glyph-name="mp" unicode="&#59074;" d="M833.4336 716.8l-483.584-113.7664V221.824a143.3344 143.3344 0 0 1-56.8832 11.4176C230.144 233.2416 179.2 195.072 179.2 147.9168c0-47.1296 50.944-85.3504 113.7664-85.3504 62.848 0 113.792 38.2208 113.792 85.3504V559.5136l369.7664 87.0144V335.616a143.3344 143.3344 0 0 1-56.8832 11.4176c-62.8224 0-113.7664-38.2208-113.7664-85.3504 0-47.104 50.944-85.3248 113.7664-85.3248 62.848 0 113.792 38.1952 113.792 85.3248V716.8z m76.8-844.8H113.7664C51.2-128 0-76.8 0-14.2336V782.2336C0 844.8 51.2 896 113.7664 896h796.4672C972.8 896 1024 844.8 1024 782.2336v-796.4672C1024-76.8 972.8-128 910.2336-128z"  horiz-adv-x="1024" />

    
    <glyph glyph-name="weizhileixing" unicode="&#59075;" d="M647.2448 667.0848l-15.5904 15.5904H270.2336v-597.3504h483.5328V560.5632l-12.288 12.288a19.3536 19.3536 0 0 1-0.128 0.128l-94.0288 94.0544-0.0768 0.0512z m-35.584-12.8512a21.0688 21.0688 0 0 1-0.1024-1.9712v-111.8208h113.7664v-426.6752H298.6752V654.2336h312.96zM910.208-128H113.7664C51.2-128 0-76.8 0-14.2336V782.2336C0 844.8 51.2 896 113.7664 896h796.4672C972.8 896 1024 844.8 1024 782.2336v-796.4672C1024-76.8 972.8-128 910.2336-128zM640 568.8832V634.112l65.2288-65.2032H640z"  horiz-adv-x="1024" />

    
    <glyph glyph-name="jpg" unicode="&#59076;" d="M910.2336-128H113.7664C51.2-128 0-76.8 0-14.2336V782.2336C0 844.8 51.2 896 113.7664 896h796.4672C972.8 896 1024 844.8 1024 782.2336v-796.4672C1024-76.8 972.8-128 910.2336-128zM793.6 665.6H230.4c-28.2368 0-51.2-22.9632-51.2-51.2v-460.8c0-28.2368 22.9632-51.2 51.2-51.2h563.2c28.2368 0 51.2 22.9632 51.2 51.2V614.4c0 28.2368-22.9632 51.2-51.2 51.2z m0-51.2l0.0256-416.9472L640 460.8l-128-230.4-128 128-153.6-175.5392V614.4h563.2z m-452.2752-173.5168a56.9088 56.9088 0 1 1-0.0256 113.8176 56.9088 56.9088 0 0 1 0.0256-113.8176z"  horiz-adv-x="1024" />

    
    <glyph glyph-name="docx" unicode="&#59077;" d="M910.2336-128H113.7664C51.2-128 0-76.8 0-14.2336V782.2336C0 844.8 51.2 896 113.7664 896h796.4672C972.8 896 1024 844.8 1024 782.2336v-796.4672C1024-76.8 972.8-128 910.2336-128zM850.5088 642.176h-71.68l-101.3248-391.68c-5.3504-19.328-8.576-36.224-9.6768-50.688h-1.3312c-2.2272 20.0192-5.0944 36.4544-8.6528 49.3824L551.168 642.1504h-65.664L373.8368 252.16c-6.2464-21.9904-9.8816-39.6544-11.008-52.992h-1.9968a254.976 254.976 0 0 1-8.3456 52.992L247.168 642.176H173.4912l149.6832-516.352h77.0048l104.96 372.6592a249.0112 249.0112 0 0 1 9.344 52.6848h1.3312c0.9216-18.6624 3.6864-36.4288 8.3456-53.3248l104.0128-371.9936h77.6704l144.64 516.3264z"  horiz-adv-x="1024" />

    
    <glyph glyph-name="PDF" unicode="&#59078;" d="M910.2336-128H113.7664C51.2-128 0-76.8 0-14.2336V782.2336C0 844.8 51.2 896 113.7664 896h796.4672C972.8 896 1024 844.8 1024 782.2336v-796.4672C1024-76.8 972.8-128 910.2336-128zM155.2128 340.5568h44.672c35.9936-1.2032 66.0224 8.704 89.984 29.6704 24.0128 20.9664 36.0192 48.3328 36.0192 82.1248 0 33.28-10.24 58.9568-30.7712 76.8768-20.5312 17.92-49.3568 26.88-86.5536 26.88h-97.792v-344.2432h44.4416v128.6912z m0 176.4352h45.3376c52.48 0 78.6688-22.1184 78.6688-66.432 0-22.8096-7.04-40.3456-21.12-52.5824-14.08-12.1856-34.6624-18.304-61.7728-18.304H155.2128v137.3184z m234.0352-305.1008h94.6432c54.528 0 99.072 16.0768 133.6576 48.2048 34.6112 32.1536 51.8912 74.9056 51.8912 128.256 0 51.0976-17.28 91.8528-51.8912 122.2144-34.56 30.336-77.952 45.568-130.0992 45.568h-98.2016v-344.2432z m44.416 304.6656h51.9936c41.0624 0 74.1632-10.8032 99.328-32.4608 25.216-21.6064 37.7856-53.888 37.7856-96.8704 0-43.008-12.2368-76.3392-36.7872-100.224-24.5248-23.8592-58.624-35.7632-102.3232-35.7632H433.664V516.5568z m479.5648 0v39.5776h-177.3312v-344.2432h44.4416v150.4512h123.1104V401.408h-123.136v115.1232h132.9152z"  horiz-adv-x="1024" />

    
    <glyph glyph-name="mp1" unicode="&#59079;" d="M910.2336-128H113.7664C51.2-128 0-76.8 0-14.2336V782.2336C0 844.8 51.2 896 113.7664 896h796.4672C972.8 896 1024 844.8 1024 782.2336v-796.4672C1024-76.8 972.8-128 910.2336-128z m-768 341.3248h512V554.6752h-512v-341.3504zM663.9616 384l217.8048-160.9216V544.9216L663.9616 384z"  horiz-adv-x="1024" />

    
    <glyph glyph-name="txt" unicode="&#59080;" d="M910.2336-128H113.7664C51.2-128 0-76.8 0-14.2336V782.2336C0 844.8 51.2 896 113.7664 896h796.4672C972.8 896 1024 844.8 1024 782.2336v-796.4672C1024-76.8 972.8-128 910.2336-128z m-270.6176 253.824l-196.6592 516.352h-71.3472l-196.6592-516.352h73.6768l49.664 141.3376h214.9888l52.6592-141.3376h73.6768z m-146.9952 199.68h-173.3376l77.312 214.656c3.1232 8.448 5.888 20.48 8.3456 36.0192h1.6896c2.8672-17.1264 5.5296-29.1328 7.9872-36.0192l78.0032-214.656z m15.104 257.1008h341.3504V639.488H507.7248v-56.8832z m85.3504-142.2336h256v56.8832h-256v-56.8832z m85.3248-142.208h170.6752v56.8832H678.4v-56.8832z"  horiz-adv-x="1024" />

    
    <glyph glyph-name="ppt" unicode="&#59081;" d="M910.2336-128H113.7664C51.2-128 0-76.8 0-14.2336V782.2336C0 844.8 51.2 896 113.7664 896h796.4672C972.8 896 1024 844.8 1024 782.2336v-796.4672C1024-76.8 972.8-128 910.2336-128zM425.0624 316.6464h66.9952c54.016-1.7664 99.0208 13.056 135.04 44.5184 35.968 31.4368 53.9648 72.4992 53.9648 123.136 0 50.0224-15.36 88.448-46.1568 115.3536C604.16 626.5344 560.8448 640 505.088 640H358.4v-516.352h66.6624v192.9984z m0 264.6784h68.0192c78.6432 0 117.9904-33.2288 117.9904-99.6864 0-34.2016-10.5472-60.4928-31.6672-78.7968-21.0944-18.3552-51.968-27.52-92.672-27.52h-61.6704v206.0032z"  horiz-adv-x="1024" />

    
    <glyph glyph-name="zip" unicode="&#59082;" d="M910.2336-128H113.7664C51.2-128 0-76.8 0-14.2336V782.2336C0 844.8 51.2 896 113.7664 896h796.4672C972.8 896 1024 844.8 1024 782.2336v-796.4672C1024-76.8 972.8-128 910.2336-128zM569.6 665.6v-112.64H512v-56.32h57.6v-56.32H512V384h57.6v-112.64h-115.2v56.32H512V384h-57.6v56.32H512v56.32h-57.6v56.32H512V665.6h-230.4v-563.2h460.8V665.6h-172.8z"  horiz-adv-x="1024" />

    
    <glyph glyph-name="ps" unicode="&#59083;" d="M113.7664-128C51.2-128 0-76.8 0-14.2336V782.2336C0 844.8 51.2 896 113.7664 896h796.4672C972.8 896 1024 844.8 1024 782.2336v-796.4672C1024-76.8 972.8-128 910.2336-128H113.7664z m146.0736 451.1488h66.9696c54.016-1.7664 99.0208 13.056 135.04 44.544 35.968 31.4112 53.9904 72.4736 53.9904 123.136 0 50.0224-15.3856 88.448-46.1824 115.3536-30.7712 26.88-74.0608 40.32-129.792 40.32h-146.688v-516.352h66.6624v193.024z m321.9968-113.3056v-66.688c28.4416-14.4384 61.7728-21.632 100.0192-21.632 43.9552 0 79.7952 9.7024 107.4688 29.1584 27.6992 19.456 41.5232 46.0288 41.5232 79.8208 0 24.2176-7.2448 44.544-21.6832 61.0048-14.464 16.4352-42.2144 32.3328-83.3536 47.6672-32.4096 12.8768-53.3504 23.424-62.7968 31.6672-9.472 8.192-14.1824 19.6608-14.1824 34.304 0 14.9248 6.5536 26.88 19.6608 36.0192 13.1328 9.1136 30.1056 13.6704 51.0208 13.6704 34.8672 0 66.0992-8.8832 93.6704-26.6496v62.976c-26.9312 10.88-56.0128 16.3328-87.3728 16.3328-40.4224 0-74.496-9.8304-102.144-29.4912-27.648-19.6864-41.472-45.824-41.472-78.4896 0-22.912 6.0928-42.3936 18.304-58.5216 12.2368-16.1024 38.784-32.3584 79.6672-48.8192 33.9968-12.672 56.5504-23.6288 67.6608-32.8448 11.136-9.216 16.6656-20.9408 16.6656-35.1488 0-33.3568-25.4464-50.0224-76.3392-50.0224-37.9904 0-73.4464 11.904-106.3168 35.6864zM259.84 587.8272h67.9936c78.6688 0 118.016-33.2288 118.016-99.6608 0-34.2272-10.5728-60.4928-31.6672-78.8224-21.12-18.3552-51.9936-27.4944-92.672-27.4944h-61.696v205.9776z"  horiz-adv-x="1024" />

    
    <glyph glyph-name="xlsx" unicode="&#59084;" d="M910.2336-128H113.7664C51.2-128 0-76.8 0-14.2336V782.2336C0 844.8 51.2 896 113.7664 896h796.4672C972.8 896 1024 844.8 1024 782.2336v-796.4672C1024-76.8 972.8-128 910.2336-128z m-152.2688 210.816L567.04 386.5344l188.2368 298.6752h-89.088l-124.416-206.5152a494.336 494.336 0 0 1-22.9376-44.7232h-1.5616a415.5392 415.5392 0 0 1-20.992 42.7776l-119.0144 208.4608h-95.2576l184.32-299.8528-200.2688-302.5408h94.8736l138.4448 226.304c8.832 18.944 13.4912 29.44 14.0032 31.488h1.9456c5.9904-15.5136 10.496-25.9072 13.6192-31.0784l134.5536-226.7136h94.4896z"  horiz-adv-x="1024" />

    
    <glyph glyph-name="Ai" unicode="&#59085;" d="M910.2336-128H113.7664C51.2-128 0-76.8 0-14.2336V782.2336C0 844.8 51.2 896 113.7664 896h796.4672C972.8 896 1024 844.8 1024 782.2336v-796.4672C1024-76.8 972.8-128 910.2336-128z m-236.544 242.176l-196.6848 516.352h-71.3472L208.9984 114.176h73.6768l49.664 141.312h215.0144l52.6336-141.312h73.6768z m65.9712 0h65.3568V482.8416h-65.3568V114.176z m-7.68 498.6624c0-11.5456 3.9168-21.1712 11.6992-28.8512 7.7568-7.6544 17.5616-11.4944 29.3376-11.4944 11.776 0 21.6832 3.84 29.824 11.52 8.1152 7.68 12.16 17.28 12.16 28.8256 0 11.776-4.0448 21.5552-12.16 29.312a41.472 41.472 0 0 1-29.824 11.6736c-11.5712 0-21.2992-3.9168-29.184-11.8272a39.6544 39.6544 0 0 1-11.8528-29.184z m-205.312-299.008h-173.3376l77.312 214.6816c3.1232 8.448 5.888 20.4544 8.3456 35.9936h1.6896c2.8672-17.1264 5.5552-29.1072 7.9872-35.9936l78.0032-214.6816z"  horiz-adv-x="1024" />

    
    <glyph glyph-name="shuiyinguanli" unicode="&#59086;" d="M139.636364 896h744.727272a139.636364 139.636364 0 0 0 139.636364-139.636364v-744.727272a139.636364 139.636364 0 0 0-139.636364-139.636364H139.636364a139.636364 139.636364 0 0 0-139.636364 139.636364V756.363636a139.636364 139.636364 0 0 0 139.636364 139.636364z m183.156363-296.354909l137.029818 12.241454L497.570909 694.30303 217.212121 676.770909v-568.32l251.221334 0.325818 34.428121 78.444606H322.792727v178.734546h140.350061l37.065697 78.785939H322.792727v154.903273z m203.558788 90.686061V73.69697l106.247758 50.967272v21.193697l78.118788 0.325819 101.624242 88.700121 0.310303 455.447273H526.36703z m106.247758-79.111758h75.139879v-386.59103h-75.139879V611.219394z"  horiz-adv-x="1024" />

    
    <glyph glyph-name="biaoqianguanli" unicode="&#59087;" d="M139.636364 896h744.727272a139.636364 139.636364 0 0 0 139.636364-139.636364v-744.727272a139.636364 139.636364 0 0 0-139.636364-139.636364H139.636364a139.636364 139.636364 0 0 0-139.636364 139.636364V756.363636a139.636364 139.636364 0 0 0 139.636364 139.636364z m560.081454-558.855758c0 11.496727-3.909818 21.379879-11.946666 30.11491L452.654545 602.127515c-8.254061 8.285091-19.750788 15.406545-33.512727 21.379879-14.242909 5.973333-26.872242 8.73503-38.353454 8.73503h-136.843637c-11.481212 0-21.348848-4.359758-29.618424-12.644848-8.269576-8.269576-12.629333-18.152727-12.629333-29.63394v-136.533333c0-11.481212 2.761697-24.576 8.719515-38.36897 5.973333-14.242909 12.629333-25.289697 21.364363-33.543757L466.897455 146.152727c8.269576-8.269576 18.137212-11.946667 29.618424-11.946666s21.348848 3.909818 30.083879 11.946666L687.771152 307.510303c7.586909 8.269576 11.946667 18.152727 11.946666 29.633939z m110.716121 30.471758L576.574061 602.14303c-8.22303 8.269576-19.642182 15.39103-33.357576 21.364364-14.149818 5.973333-26.701576 8.73503-38.120727 8.73503h-73.541819c11.419152 0 24.436364-2.761697 38.136243-8.73503 14.165333-5.973333 25.134545-12.629333 33.357576-21.364364l233.844363-234.52703c8.22303-8.73503 12.101818-18.618182 12.101818-30.099394s-3.878788-21.364364-12.101818-29.633939l-153.243151-154.59297c6.62497-6.671515 12.567273-11.481212 17.361454-14.708364 4.794182-3.211636 11.419152-4.344242 19.176728-4.344242 11.419152 0 21.255758 3.878788 29.928727 12.163879l160.31806 161.714424c8.22303 8.269576 11.869091 18.152727 11.869091 29.633939s-3.878788 20.898909-11.869091 29.866667zM338.97503 495.088485a40.649697 40.649697 0 0 0-29.944242-12.25697c-11.589818 0-21.566061 3.925333-29.913212 12.25697a40.494545 40.494545 0 0 0-12.288 29.882182c0 11.574303 3.940848 21.519515 12.288 29.866666 8.347152 8.331636 18.323394 12.25697 29.928727 12.25697 11.589818 0 21.566061-3.925333 29.928727-12.25697 8.347152-8.347152 12.055273-18.307879 12.055273-29.866666 0.698182-11.822545-3.723636-21.550545-12.055273-29.882182z"  horiz-adv-x="1024" />

    
    <glyph glyph-name="chengyuanjituanduiguanli" unicode="&#59088;" d="M139.636364 896h744.727272a139.636364 139.636364 0 0 0 139.636364-139.636364v-744.727272a139.636364 139.636364 0 0 0-139.636364-139.636364H139.636364a139.636364 139.636364 0 0 0-139.636364 139.636364V756.363636a139.636364 139.636364 0 0 0 139.636364 139.636364z m489.968484-590.149818a237.955879 237.955879 0 0 1-136.269575 88.824242 132.06497 132.06497 0 0 1-53.946182 252.633212c-82.990545 0-132.142545-64.853333-132.142546-132.033939a132.06497 132.06497 0 0 1 78.196364-120.599273C282.841212 370.905212 205.668848 280.731152 201.69697 171.923394h405.100606c-7.912727 15.515152-12.396606 33.047273-12.396606 51.665454 0 32.364606 13.513697 61.548606 35.219394 82.261334z m131.785697 41.890909a196.623515 196.623515 0 0 1-78.491151 46.08 108.993939 108.993939 0 0 1 51.665454 92.734061c0 60.260848-48.872727 109.071515-109.14909 109.071515-16.089212 0-31.340606-3.459879-45.087031-9.69697a154.220606 154.220606 0 0 0 18.214788-72.967758 154.422303 154.422303 0 0 0-41.394424-105.440969 10.658909 10.658909 0 0 1-2.296243-2.420364l-0.946424-0.977454 0.248243-0.217213a10.333091 10.333091 0 0 1 7.897212-14.863515 259.754667 259.754667 0 0 0 82.881939-70.904242 113.136485 113.136485 0 0 0 63.146667 19.130182c14.630788 0 28.594424-2.730667 41.44097-7.788606 2.249697-1.536 4.685576-3.118545 7.043878-4.685576 5.988848-3.956364 11.046788-8.192 13.529212-8.192a10.333091 10.333091 0 0 1 10.333091 10.333091c0 3.987394-10.643394 14.661818-19.037091 20.821333z m-53.31006-31.138909a93.013333 93.013333 0 1 1 0-186.026667 93.013333 93.013333 0 0 1 0 186.026667z m51.665454-103.330909h-41.332363v-41.301334a10.317576 10.317576 0 1 0-20.666182 0v41.285819H656.446061a10.333091 10.333091 0 1 0 0 20.681697h41.316848V275.238788a10.317576 10.317576 0 1 0 20.666182 0v-41.316849h41.316848a10.317576 10.317576 0 1 0 0-20.681697z"  horiz-adv-x="1024" />

    
    <glyph glyph-name="tianjiaguanliyuan" unicode="&#59089;" d="M139.636364 896h744.727272a139.636364 139.636364 0 0 0 139.636364-139.636364v-744.727272a139.636364 139.636364 0 0 0-139.636364-139.636364H139.636364a139.636364 139.636364 0 0 0-139.636364 139.636364V756.363636a139.636364 139.636364 0 0 0 139.636364 139.636364z m618.232242-687.010909a52.999758 52.999758 0 0 1-18.819879 26.251636 121.018182 121.018182 0 0 1-30.595879 16.492606 413.478788 413.478788 0 0 1-35.638303 11.434667 335.499636 335.499636 0 0 0-33.978181 11.108848c-11.636364 4.499394-20.728242 9.650424-27.229091 15.484122-6.500848 5.833697-11.201939 12.008727-14.118788 18.509575a56.738909 56.738909 0 0 0-5.042424 19.192243c-0.449939 6.283636 0 12.567273 1.349818 18.835394 1.784242 10.333091 5.15103 17.625212 10.084848 21.876363 4.933818 4.266667 11.201939 9.541818 18.819879 15.825455 3.599515 2.684121 6.62497 6.609455 9.091879 11.791515 2.466909 5.15103 4.809697 10.426182 7.059394 15.80994 2.234182 5.833697 4.251152 12.334545 6.050909 19.51806 2.684121 1.349818 5.15103 3.584 7.385212 6.733576 2.249697 2.684121 4.266667 6.609455 6.050909 11.776 1.799758 5.15103 3.149576 12.225939 4.033939 21.209212a95.26303 95.26303 0 0 1 1.024 16.818424 127.844848 127.844848 0 0 1-1.008484 11.450182 35.343515 35.343515 0 0 1-2.01697 8.067879 463.282424 463.282424 0 0 1-4.033939 49.136485 322.094545 322.094545 0 0 1-10.767516 45.443879 140.194909 140.194909 0 0 1-22.869333 44.078545c-4.468364 5.833697-8.626424 10.333091-12.427636 13.467151a32.690424 32.690424 0 0 1-11.434667 6.392243 41.394424 41.394424 0 0 1-11.776 1.691151h-12.76897a362.806303 362.806303 0 0 0-9.076363 9.417697 41.704727 41.704727 0 0 1-10.426182 8.067879c-4.033939 2.249697-9.309091 4.158061-15.80994 5.740606A175.941818 175.941818 0 0 1 513.768727 694.30303c-9.417697 0-19.269818-0.775758-29.587394-2.358303a137.991758 137.991758 0 0 1-30.595878-8.409212c-10.084848-4.033939-19.843879-9.774545-29.246061-17.159757a136.812606 136.812606 0 0 1-26.220606-27.927273 119.823515 119.823515 0 0 1-19.518061-41.068606c-4.033939-15.266909-6.950788-29.401212-8.73503-42.402909a415.123394 415.123394 0 0 1-2.699636-47.119515 35.669333 35.669333 0 0 1-3.351273-12.8c-0.899879-4.033939-1.008485-8.843636-0.341333-14.460122 0.667152-5.616485 2.125576-12.008727 4.375272-19.192242a136.533333 136.533333 0 0 1 6.050909-16.492606c1.799758-3.816727 3.366788-6.826667 4.701091-9.091879 1.799758-2.234182 3.149576-3.801212 4.03394-4.701091 1.799758-7.183515 3.816727-13.684364 6.050909-19.51806 2.249697-5.383758 4.608-10.658909 7.074909-15.825455 2.451394-5.166545 5.492364-9.091879 9.076363-11.791515 6.718061-5.818182 12.877576-11.434667 18.478546-16.818424 5.616485-5.383758 8.859152-13.001697 9.75903-22.884849 0.449939-6.733576 0.667152-12.784485 0.667152-18.168242 0-5.383758-1.008485-10.550303-3.025455-15.484122-2.01697-4.933818-5.368242-9.867636-10.084848-14.801454-4.701091-4.933818-11.326061-10.100364-19.828364-15.484121-10.767515-7.183515-23.427879-12.567273-38.012121-16.151273a431.941818 431.941818 0 0 1-41.673697-12.458667 119.575273 119.575273 0 0 1-34.971152-19.192242c-10.084848-8.067879-16.259879-19.735273-18.49406-34.986667-4.033939-26.934303-4.933818-48.810667-2.699637-65.629091 2.249697-16.833939 5.383758-26.825697 9.417697-29.944242 2.249697-2.265212 8.192-4.390788 17.826909-6.407758a829.579636 829.579636 0 0 1 80.368485-12.458666c16.570182-1.784242 33.28-3.366788 50.082909-4.701091 16.818424-1.349818 33.171394-2.482424 49.08994-3.366788 15.918545-0.899879 29.928727-1.349818 42.030545-1.349818s26.220606 0.341333 42.356364 1.008485c16.135758 0.667152 32.73697 1.799758 49.772606 3.366787a1314.598788 1314.598788 0 0 1 51.106909 5.725091 1053.913212 1053.913212 0 0 1 46.390303 7.059394c13.901576 2.482424 25.444848 5.166545 34.645333 8.067879 9.18497 2.932364 14.894545 5.957818 17.144243 9.091879 3.134061 4.499394 5.492364 11.108848 7.059394 19.859394 1.56703 8.750545 2.358303 18.059636 2.358303 27.927273 0 9.883152-0.682667 19.642182-2.01697 29.292606a180.286061 180.286061 0 0 1-4.716606 23.893333z m-215.862303 22.217697c-3.568485-7.183515-6.609455-12.908606-9.076364-17.175273a36.150303 36.150303 0 0 0-7.726545-9.75903c1.349818-4.483879 2.916848-10.550303 4.701091-18.168243 1.799758-7.633455 3.475394-15.484121 5.042424-23.552 1.56703-8.083394 3.025455-15.375515 4.375273-21.876363 1.349818-6.516364 2.01697-11.108848 2.01697-13.808485 0-2.234182-1.008485-5.042424-3.025455-8.409212-2.01697-3.366788-4.483879-6.516364-7.400727-9.417697a72.378182 72.378182 0 0 0-9.076364-7.757576c-3.134061-2.234182-5.818182-3.351273-8.067879-3.351273-2.234182 0-4.809697 1.117091-7.726545 3.366788a49.803636 49.803636 0 0 0-8.409212 8.409212 117.341091 117.341091 0 0 0-7.059394 9.759031c-2.01697 3.134061-3.025455 5.833697-3.025455 8.067878 0 3.599515 0.558545 8.874667 1.675637 15.825455a596.836848 596.836848 0 0 0 9.076363 45.102545c1.799758 7.400727 3.134061 13.125818 4.03394 17.159758a39.749818 39.749818 0 0 0-7.400728 11.108849 985.801697 985.801697 0 0 1-8.067878 16.492606 7.819636 7.819636 0 0 0-0.325819 7.400727c1.117091 2.699636 2.575515 5.166545 4.359758 7.400727 1.799758 2.699636 4.266667 5.616485 7.400727 8.750546h30.937212c3.134061-3.134061 5.833697-6.050909 8.067879-8.750546 2.234182-2.684121 3.925333-5.492364 5.042424-8.409212a10.007273 10.007273 0 0 0-0.341333-8.409212z"  horiz-adv-x="1024" />

    
    <glyph glyph-name="xiangmu" unicode="&#59090;" d="M139.636364 896h744.727272a139.636364 139.636364 0 0 0 139.636364-139.636364v-744.727272a139.636364 139.636364 0 0 0-139.636364-139.636364H139.636364a139.636364 139.636364 0 0 0-139.636364 139.636364V756.363636a139.636364 139.636364 0 0 0 139.636364 139.636364z m496.733091-789.426424a12.132848 12.132848 0 0 1 12.815515 12.815515V313.561212a97.326545 97.326545 0 0 1-91.229091 99.793455h-96.19394a97.093818 97.093818 0 0 1-91.042909-99.793455v-194.172121a12.132848 12.132848 0 0 1 12.815515-12.815515h252.83491z m-320.698182 0a11.915636 11.915636 0 0 1 12.567272 12.815515V321.660121a10.115879 10.115879 0 0 1-2.466909 10.333091 10.348606 10.348606 0 0 1-8.998788 3.816727h-39.098181a76.644848 76.644848 0 0 1-75.962182-75.729454v-140.25697a12.148364 12.148364 0 0 1 12.598303-12.8h101.360485v-0.465454z m489.720242 0a12.132848 12.132848 0 0 1 12.8 12.815515v140.691394a76.412121 76.412121 0 0 1-75.962182 76.86206h-39.098181c-2.699636 0-7.64897-1.132606-8.998788-3.832242a25.801697 25.801697 0 0 1-2.466909-10.333091v-202.27103a11.915636 11.915636 0 0 1 12.582787-12.815515l101.143273-1.117091zM730.763636 355.824485a89.894788 89.894788 0 1 1-88.544969 89.894788 88.793212 88.793212 0 0 1 88.560485-89.894788z m-439.140848 0a88.54497 88.54497 0 0 1 88.54497 89.894788 88.560485 88.560485 0 1 1-177.105455 0 88.560485 88.560485 0 0 1 88.560485-89.894788z m218.220606 78.196363a114.191515 114.191515 0 0 1 113.943273 115.308607 113.943273 113.943273 0 1 1-227.886546 0 114.393212 114.393212 0 0 1 113.943273-115.293091z"  horiz-adv-x="1024" />

    
    <glyph glyph-name="yingyongguanli" unicode="&#59091;" d="M139.636364 896h744.727272a139.636364 139.636364 0 0 0 139.636364-139.636364v-744.727272a139.636364 139.636364 0 0 0-139.636364-139.636364H139.636364a139.636364 139.636364 0 0 0-139.636364 139.636364V756.363636a139.636364 139.636364 0 0 0 139.636364 139.636364z m261.275151-262.469818H241.260606c-11.062303 0-20.433455-3.847758-28.082424-11.527758A38.322424 38.322424 0 0 1 201.69697 593.857939v-159.961212c0-11.077818 3.832242-20.573091 11.481212-28.470303a37.670788 37.670788 0 0 1 28.097939-11.822545H400.911515c11.062303 0 20.526545 3.940848 28.392727 11.822545 7.881697 7.897212 11.822545 17.37697 11.822546 28.485818V593.857939c0 11.077818-3.940848 20.48-11.80703 28.144485a39.253333 39.253333 0 0 1-28.408243 11.527758z m0-319.906909H241.260606a38.167273 38.167273 0 0 1-28.082424-11.512243c-7.664485-7.68-11.496727-17.066667-11.496727-28.16v-160.581818c0-11.093333 3.832242-20.48 11.481212-28.16a38.167273 38.167273 0 0 1 28.097939-11.512242H400.911515a39.253333 39.253333 0 0 1 28.392727 11.512242c7.881697 7.68 11.822545 17.066667 11.822546 28.16v160.581818c0 11.093333-3.940848 20.48-11.80703 28.16a39.222303 39.222303 0 0 1-28.408243 11.512243z m319.875879 0H561.167515c-11.077818 0-20.542061-3.832242-28.408242-11.512243a37.794909 37.794909 0 0 1-11.822546-28.16v-160.581818c0-11.093333 3.940848-20.48 11.822546-28.16a39.237818 39.237818 0 0 1 28.392727-11.512242h159.635394a38.167273 38.167273 0 0 1 28.082424 11.512242c7.664485 7.68 11.496727 17.066667 11.496727 28.16v160.581818c0 11.093333-3.832242 20.48-11.481212 28.16a38.167273 38.167273 0 0 1-28.097939 11.512243z m88.746667 249.514666l-118.75297 119.001213c-8.517818 8.114424-18.416485 12.163879-29.696 12.163878-11.279515 0-21.178182-4.049455-29.680485-12.148363l-118.768485-119.001212a42.278788 42.278788 0 0 1-12.132848-30.083879c0-11.512242 4.033939-21.317818 12.132848-29.432243l118.768485-119.001212c8.502303-8.533333 18.40097-12.8 29.680485-12.8 11.279515 0 21.178182 4.266667 29.696 12.8l118.75297 119.001212c8.517818 8.114424 12.76897 17.92 12.768969 29.432243s-4.251152 21.550545-12.768969 30.068363z"  horiz-adv-x="1024" />

    
    <glyph glyph-name="changjianwenti" unicode="&#59092;" d="M139.636364 896h744.727272a139.636364 139.636364 0 0 0 139.636364-139.636364v-744.727272a139.636364 139.636364 0 0 0-139.636364-139.636364H139.636364a139.636364 139.636364 0 0 0-139.636364 139.636364V756.363636a139.636364 139.636364 0 0 0 139.636364 139.636364z m223.961212-329.18497H795.306667c14.894545 0 26.980848 12.101818 26.980848 26.980849a26.996364 26.996364 0 0 1-26.996363 26.980848H363.613091a26.996364 26.996364 0 1 1 0-53.961697zM795.306667 404.914424H363.597576a26.996364 26.996364 0 0 1 0-53.961697H795.306667a26.996364 26.996364 0 0 1 0 53.961697z m0-215.862303H363.597576a26.996364 26.996364 0 0 1 0-53.961697H795.306667a26.996364 26.996364 0 1 1 0 53.961697zM236.140606 603.741091v-63.922424h33.016242V647.757576H246.070303l-3.04097-3.630546c-6.035394-7.245576-13.932606-13.622303-23.396848-19.00606l-4.437333-2.513455v-29.509818l15.39103 7.71103c1.861818 0.930909 3.723636 1.923879 5.554424 2.932364z m34.800485-231.020606c6.159515 8.766061 9.510788 16.368485 10.24 23.210667 0.729212 6.981818-0.356848 13.187879-3.196121 18.52509a31.061333 31.061333 0 0 1-11.170909 11.962182 37.577697 37.577697 0 0 1-12.644849 4.856243 49.943273 49.943273 0 0 1-12.412121 0.403394 38.818909 38.818909 0 0 1-22.093576-7.974788c-6.004364-4.654545-10.860606-11.838061-14.413576-21.302303l-3.552969-9.510788 28.997818-4.235637 2.52897 6.578425a14.692848 14.692848 0 0 0 5.088969 7.090424 14.196364 14.196364 0 0 0 6.826667 2.622061c1.396364 0.217212 2.808242-0.170667 3.878788-1.055031a5.104485 5.104485 0 0 0 2.172121-3.397818c0.186182-1.086061 0.155152-3.568485-1.908364-8.067879-1.365333-2.854788-4.778667-8.455758-13.591272-18.866424-7.245576-8.533333-13.218909-14.848-17.764849-18.695758-6.671515-5.694061-10.317576-12.381091-10.891636-19.859393v-11.046788h75.605333v26.282666h-30.316606c8.579879 9.541818 14.739394 16.958061 18.618182 22.49697z m1.908364-207.344485c3.366788 3.382303 5.802667 7.447273 7.090424 11.884606 2.048 7.292121 1.629091 14.196364-1.287758 20.557576-3.04097 6.62497-8.347152 11.605333-15.763394 14.81697-6.842182 2.885818-14.739394 3.987394-23.536485 3.10303-9.402182-0.961939-17.035636-4.359758-22.683151-10.115879a52.161939 52.161939 0 0 1-11.512243-18.494061l-3.459878-9.262545 25.832727-3.816727v-20.247273l8.052364-1.039515c8.486788-1.070545 12.024242-2.808242 13.34303-3.739152 1.086061-0.760242 2.342788-2.032485 2.637576-5.011394a8.812606 8.812606 0 0 0-2.187637-6.873212 6.671515 6.671515 0 0 0-5.538909-2.404848 8.083394 8.083394 0 0 0-6.392242 1.861818 16.368485 16.368485 0 0 0-5.05794 7.586909l-2.435878 6.997333-27.989334-4.142545 1.706667-8.347152c1.954909-9.619394 6.609455-17.159758 13.79297-22.403878a43.132121 43.132121 0 0 1 25.025939-8.192h1.163636a41.984 41.984 0 0 1 24.870788 7.850666c7.757576 5.554424 12.350061 12.877576 13.699879 21.876364 1.241212 8.704-0.201697 16.089212-4.297697 21.876364a32.519758 32.519758 0 0 1-5.073454 5.678545z"  horiz-adv-x="1024" />

    
    <glyph glyph-name="guanliyuanbidu" unicode="&#59093;" d="M150.588235 896h722.82353c83.169882 0 150.588235-67.418353 150.588235-150.588235v-722.82353c0-83.169882-67.418353-150.588235-150.588235-150.588235H150.588235C67.418353-128 0-60.581647 0 22.588235V745.411765C0 828.581647 67.418353 896 150.588235 896z m354.725647-475.196235a132.186353 132.186353 0 1 1 0 264.372706 132.186353 132.186353 0 0 1 0-264.372706z m32.933647-30.765177a30.117647 30.117647 0 0 1-18.236235-27.678117v-249.072942a30.117647 30.117647 0 0 1 41.110588-28.02447 546.846118 546.846118 0 0 0 83.727059 25.449412 487.604706 487.604706 0 0 0 95.247059 11.248941 30.117647 30.117647 0 0 1 29.590588 30.117647V405.338353a30.117647 30.117647 0 0 1-31.503059 30.087529c-32.768-1.505882-65.249882-5.767529-97.445647-12.754823a560.986353 560.986353 0 0 1-102.490353-32.632471z m-65.852235 0a560.986353 560.986353 0 0 1-102.490353 32.632471 585.728 585.728 0 0 1-97.460706 12.754823A30.117647 30.117647 0 0 1 240.941176 405.338353v-253.259294a30.117647 30.117647 0 0 1 29.605648-30.117647 487.604706 487.604706 0 0 0 95.232-11.248941c28.16-6.113882 56.079059-14.607059 83.727058-25.449412a30.117647 30.117647 0 0 1 41.110589 28.039529v249.072941a30.117647 30.117647 0 0 1-18.221177 27.663059z"  horiz-adv-x="1024" />

    
    <glyph glyph-name="danren" unicode="&#58894;" d="M788.694519 291.279498a351.295467 351.295467 0 1 1-486.556344 0C165.346042 220.33134 18.600751 61.97403 0.353293-80.943124a41.088682 41.088682 0 0 1 8.421903-30.752709 40.705868 40.705868 0 0 1 27.690199-15.82297 38.28138 38.28138 0 0 1 5.359393 0A41.981914 41.981914 0 0 1 83.296284-90.896283c14.41932 115.992582 162.440657 277.667612 296.170279 325.902152a350.27463 350.27463 0 0 1 330.878731 0C842.543661 187.281748 973.721191 34.411436 989.416557-91.279096a41.981914 41.981914 0 0 1 41.471495-36.622521 34.836056 34.836056 0 0 1 5.231789 0 40.705868 40.705868 0 0 1 27.817803 15.822971 41.088682 41.088682 0 0 1 8.294299 31.135522c-16.843807 136.409319-144.448409 298.722371-283.537424 372.222622z m-510.418405 252.91232a267.969663 267.969663 0 1 0 267.969663-267.969663 267.969663 267.969663 0 0 0-268.480081 267.969663z"  horiz-adv-x="1073" />

    
    <glyph glyph-name="mima" unicode="&#58895;" d="M770.773186 543.291331h-476.306944V618.656354c0 108.525633 92.126204 192.934458 209.69564 192.934459 114.554835 0 200.893005-83.202985 200.893005-193.537379v-14.711252a42.324997 42.324997 0 0 1 82.600065 0v14.470084A272.278754 272.278754 0 0 1 704.813718 818.222935 289.401688 289.401688 0 0 1 506.935315 895.999638h-3.738106a305.198196 305.198196 0 0 1-202.460597-76.932615A266.973057 266.973057 0 0 1 211.625009 618.656354v-81.514808A181.720143 181.720143 0 0 1 70.541686 360.485932v-305.801117a183.167151 183.167151 0 0 1 182.8054-182.684815h517.4261a183.046567 183.046567 0 0 1 182.684816 182.684815V360.485932a183.167151 183.167151 0 0 1-182.684816 182.805399z m99.361247-182.805399v-305.680533A99.722998 99.722998 0 0 0 770.773186-44.555847H253.347086a99.722998 99.722998 0 0 0-99.48183 99.48183V360.485932a99.722998 99.722998 0 0 0 99.48183 99.48183h517.4261a99.843582 99.843582 0 0 0 99.361247-99.48183zM512.241012 401.605088h-0.60292a159.170928 159.170928 0 0 1-41.119157-312.071486v-62.221363a42.083829 42.083829 0 0 1 18.449358-26.528488 41.601493 41.601493 0 0 1 22.790383-6.752706 44.857262 44.857262 0 0 1 8.923219 0.964672A42.445581 42.445581 0 0 1 553.480753 27.794575v62.100779A159.170928 159.170928 0 0 1 512.241012 401.605088z m75.726775-158.688592a75.967943 75.967943 0 0 0-75.847359-76.088527 75.967943 75.967943 0 0 0-75.967943 75.847359 75.967943 75.967943 0 0 0 151.935886 0.723505z"  horiz-adv-x="1024" />

    


  </font>
</defs>
</svg>
